<?xml version="1.0" encoding="UTF-8"?>
<svg xmlns="http://www.w3.org/2000/svg" xmlns:xlink="http://www.w3.org/1999/xlink" width="2267.715107pt" height="1133.857553pt" viewBox="0 0 2267.715107 1133.857553" version="1.1">
<g id="surface6">
<path style="fill:none;stroke-width:1;stroke-linecap:butt;stroke-linejoin:miter;stroke:rgb(0%,0%,0%);stroke-opacity:1;stroke-miterlimit:10;" d="M -0.000608695 0.00012675 L 749.999907 0.00012675 " transform="matrix(2.834644,0,0,-2.834644,141.732194,992.125359)"/>
<path style="fill:none;stroke-width:1;stroke-linecap:butt;stroke-linejoin:miter;stroke:rgb(0%,0%,0%);stroke-opacity:1;stroke-miterlimit:10;" d="M -0.000608695 0.00012675 L -0.000608695 350 " transform="matrix(2.834644,0,0,-2.834644,141.732194,992.125359)"/>
<path style="fill:none;stroke-width:0.2;stroke-linecap:butt;stroke-linejoin:miter;stroke:rgb(0%,0%,100%);stroke-opacity:1;stroke-miterlimit:10;" d="M -0.000608695 0.00012675 L 500.000195 0.00012675 " transform="matrix(2.834644,0,0,-2.834644,141.732194,992.125359)"/>
<path style="fill:none;stroke-width:0.2;stroke-linecap:butt;stroke-linejoin:miter;stroke:rgb(0%,0%,100%);stroke-opacity:1;stroke-miterlimit:10;" d="M -0.000608695 0.00012675 L 500.000195 1.947296 " transform="matrix(2.834644,0,0,-2.834644,141.732194,992.125359)"/>
<path style="fill:none;stroke-width:0.2;stroke-linecap:butt;stroke-linejoin:miter;stroke:rgb(0%,0%,100%);stroke-opacity:1;stroke-miterlimit:10;" d="M -0.000608695 0.00012675 L 500.000195 3.894465 " transform="matrix(2.834644,0,0,-2.834644,141.732194,992.125359)"/>
<path style="fill:none;stroke-width:0.2;stroke-linecap:butt;stroke-linejoin:miter;stroke:rgb(0%,0%,100%);stroke-opacity:1;stroke-miterlimit:10;" d="M -0.000608695 0.00012675 L 500.000195 5.841634 " transform="matrix(2.834644,0,0,-2.834644,141.732194,992.125359)"/>
<path style="fill:none;stroke-width:0.2;stroke-linecap:butt;stroke-linejoin:miter;stroke:rgb(0%,0%,100%);stroke-opacity:1;stroke-miterlimit:10;" d="M -0.000608695 0.00012675 L 500.000195 7.788804 " transform="matrix(2.834644,0,0,-2.834644,141.732194,992.125359)"/>
<path style="fill:none;stroke-width:0.2;stroke-linecap:butt;stroke-linejoin:miter;stroke:rgb(0%,0%,100%);stroke-opacity:1;stroke-miterlimit:10;" d="M -0.000608695 0.00012675 L 500.000195 9.734595 " transform="matrix(2.834644,0,0,-2.834644,141.732194,992.125359)"/>
<path style="fill:none;stroke-width:0.2;stroke-linecap:butt;stroke-linejoin:miter;stroke:rgb(0%,0%,100%);stroke-opacity:1;stroke-miterlimit:10;" d="M -0.000608695 0.00012675 L 500.000195 11.681764 " transform="matrix(2.834644,0,0,-2.834644,141.732194,992.125359)"/>
<path style="fill:none;stroke-width:0.2;stroke-linecap:butt;stroke-linejoin:miter;stroke:rgb(0%,0%,100%);stroke-opacity:1;stroke-miterlimit:10;" d="M -0.000608695 0.00012675 L 500.000195 13.628933 " transform="matrix(2.834644,0,0,-2.834644,141.732194,992.125359)"/>
<path style="fill:none;stroke-width:0.2;stroke-linecap:butt;stroke-linejoin:miter;stroke:rgb(0%,0%,100%);stroke-opacity:1;stroke-miterlimit:10;" d="M -0.000608695 0.00012675 L 500.000195 15.576102 " transform="matrix(2.834644,0,0,-2.834644,141.732194,992.125359)"/>
<path style="fill:none;stroke-width:0.2;stroke-linecap:butt;stroke-linejoin:miter;stroke:rgb(0%,0%,100%);stroke-opacity:1;stroke-miterlimit:10;" d="M -0.000608695 0.00012675 L 500.000195 17.523271 " transform="matrix(2.834644,0,0,-2.834644,141.732194,992.125359)"/>
<path style="fill:none;stroke-width:0.2;stroke-linecap:butt;stroke-linejoin:miter;stroke:rgb(0%,0%,100%);stroke-opacity:1;stroke-miterlimit:10;" d="M -0.000608695 0.00012675 L 500.000195 19.470441 " transform="matrix(2.834644,0,0,-2.834644,141.732194,992.125359)"/>
<path style="fill:none;stroke-width:0.2;stroke-linecap:butt;stroke-linejoin:miter;stroke:rgb(0%,0%,100%);stroke-opacity:1;stroke-miterlimit:10;" d="M -0.000608695 0.00012675 L 500.000195 21.41761 " transform="matrix(2.834644,0,0,-2.834644,141.732194,992.125359)"/>
<path style="fill:none;stroke-width:0.2;stroke-linecap:butt;stroke-linejoin:miter;stroke:rgb(0%,0%,100%);stroke-opacity:1;stroke-miterlimit:10;" d="M -0.000608695 0.00012675 L 500.000195 23.364779 " transform="matrix(2.834644,0,0,-2.834644,141.732194,992.125359)"/>
<path style="fill:none;stroke-width:0.2;stroke-linecap:butt;stroke-linejoin:miter;stroke:rgb(0%,0%,100%);stroke-opacity:1;stroke-miterlimit:10;" d="M -0.000608695 0.00012675 L 500.000195 25.311948 " transform="matrix(2.834644,0,0,-2.834644,141.732194,992.125359)"/>
<path style="fill:none;stroke-width:0.2;stroke-linecap:butt;stroke-linejoin:miter;stroke:rgb(0%,0%,100%);stroke-opacity:1;stroke-miterlimit:10;" d="M -0.000608695 0.00012675 L 500.000195 27.259117 " transform="matrix(2.834644,0,0,-2.834644,141.732194,992.125359)"/>
<path style="fill:none;stroke-width:0.2;stroke-linecap:butt;stroke-linejoin:miter;stroke:rgb(0%,0%,100%);stroke-opacity:1;stroke-miterlimit:10;" d="M -0.000608695 0.00012675 L 500.000195 29.206287 " transform="matrix(2.834644,0,0,-2.834644,141.732194,992.125359)"/>
<path style="fill:none;stroke-width:0.2;stroke-linecap:butt;stroke-linejoin:miter;stroke:rgb(0%,0%,100%);stroke-opacity:1;stroke-miterlimit:10;" d="M -0.000608695 0.00012675 L 500.000195 31.152078 " transform="matrix(2.834644,0,0,-2.834644,141.732194,992.125359)"/>
<path style="fill:none;stroke-width:0.2;stroke-linecap:butt;stroke-linejoin:miter;stroke:rgb(0%,0%,100%);stroke-opacity:1;stroke-miterlimit:10;" d="M -0.000608695 0.00012675 L 500.000195 33.099247 " transform="matrix(2.834644,0,0,-2.834644,141.732194,992.125359)"/>
<path style="fill:none;stroke-width:0.2;stroke-linecap:butt;stroke-linejoin:miter;stroke:rgb(0%,0%,100%);stroke-opacity:1;stroke-miterlimit:10;" d="M -0.000608695 0.00012675 L 500.000195 35.046416 " transform="matrix(2.834644,0,0,-2.834644,141.732194,992.125359)"/>
<path style="fill:none;stroke-width:0.2;stroke-linecap:butt;stroke-linejoin:miter;stroke:rgb(0%,0%,100%);stroke-opacity:1;stroke-miterlimit:10;" d="M -0.000608695 0.00012675 L 500.000195 36.993585 " transform="matrix(2.834644,0,0,-2.834644,141.732194,992.125359)"/>
<path style="fill:none;stroke-width:0.2;stroke-linecap:butt;stroke-linejoin:miter;stroke:rgb(0%,0%,100%);stroke-opacity:1;stroke-miterlimit:10;" d="M -0.000608695 0.00012675 L 500.000195 38.940755 " transform="matrix(2.834644,0,0,-2.834644,141.732194,992.125359)"/>
<path style="fill:none;stroke-width:0.2;stroke-linecap:butt;stroke-linejoin:miter;stroke:rgb(0%,0%,100%);stroke-opacity:1;stroke-miterlimit:10;" d="M -0.000608695 0.00012675 L 500.000195 40.887924 " transform="matrix(2.834644,0,0,-2.834644,141.732194,992.125359)"/>
<path style="fill:none;stroke-width:0.2;stroke-linecap:butt;stroke-linejoin:miter;stroke:rgb(0%,0%,100%);stroke-opacity:1;stroke-miterlimit:10;" d="M -0.000608695 0.00012675 L 500.000195 42.835093 " transform="matrix(2.834644,0,0,-2.834644,141.732194,992.125359)"/>
<path style="fill:none;stroke-width:0.2;stroke-linecap:butt;stroke-linejoin:miter;stroke:rgb(0%,0%,100%);stroke-opacity:1;stroke-miterlimit:10;" d="M -0.000608695 0.00012675 L 500.000195 44.782262 " transform="matrix(2.834644,0,0,-2.834644,141.732194,992.125359)"/>
<path style="fill:none;stroke-width:0.2;stroke-linecap:butt;stroke-linejoin:miter;stroke:rgb(0%,0%,100%);stroke-opacity:1;stroke-miterlimit:10;" d="M -0.000608695 0.00012675 L 500.000195 46.729431 " transform="matrix(2.834644,0,0,-2.834644,141.732194,992.125359)"/>
<path style="fill:none;stroke-width:0.2;stroke-linecap:butt;stroke-linejoin:miter;stroke:rgb(0%,0%,100%);stroke-opacity:1;stroke-miterlimit:10;" d="M -0.000608695 0.00012675 L 500.000195 48.676601 " transform="matrix(2.834644,0,0,-2.834644,141.732194,992.125359)"/>
<path style="fill:none;stroke-width:0.2;stroke-linecap:butt;stroke-linejoin:miter;stroke:rgb(0%,0%,100%);stroke-opacity:1;stroke-miterlimit:10;" d="M -0.000608695 0.00012675 L 500.000195 50.622392 " transform="matrix(2.834644,0,0,-2.834644,141.732194,992.125359)"/>
<path style="fill:none;stroke-width:0.2;stroke-linecap:butt;stroke-linejoin:miter;stroke:rgb(0%,0%,100%);stroke-opacity:1;stroke-miterlimit:10;" d="M -0.000608695 0.00012675 L 500.000195 52.569561 " transform="matrix(2.834644,0,0,-2.834644,141.732194,992.125359)"/>
<path style="fill:none;stroke-width:0.2;stroke-linecap:butt;stroke-linejoin:miter;stroke:rgb(0%,0%,100%);stroke-opacity:1;stroke-miterlimit:10;" d="M -0.000608695 0.00012675 L 500.000195 54.51673 " transform="matrix(2.834644,0,0,-2.834644,141.732194,992.125359)"/>
<path style="fill:none;stroke-width:0.2;stroke-linecap:butt;stroke-linejoin:miter;stroke:rgb(0%,0%,100%);stroke-opacity:1;stroke-miterlimit:10;" d="M -0.000608695 0.00012675 L 500.000195 56.463899 " transform="matrix(2.834644,0,0,-2.834644,141.732194,992.125359)"/>
<path style="fill:none;stroke-width:0.2;stroke-linecap:butt;stroke-linejoin:miter;stroke:rgb(0%,0%,100%);stroke-opacity:1;stroke-miterlimit:10;" d="M -0.000608695 0.00012675 L 500.000195 58.411068 " transform="matrix(2.834644,0,0,-2.834644,141.732194,992.125359)"/>
<path style="fill:none;stroke-width:0.2;stroke-linecap:butt;stroke-linejoin:miter;stroke:rgb(0%,0%,100%);stroke-opacity:1;stroke-miterlimit:10;" d="M -0.000608695 0.00012675 L 500.000195 60.358238 " transform="matrix(2.834644,0,0,-2.834644,141.732194,992.125359)"/>
<path style="fill:none;stroke-width:0.2;stroke-linecap:butt;stroke-linejoin:miter;stroke:rgb(0%,0%,100%);stroke-opacity:1;stroke-miterlimit:10;" d="M -0.000608695 0.00012675 L 500.000195 62.305407 " transform="matrix(2.834644,0,0,-2.834644,141.732194,992.125359)"/>
<path style="fill:none;stroke-width:0.2;stroke-linecap:butt;stroke-linejoin:miter;stroke:rgb(0%,0%,100%);stroke-opacity:1;stroke-miterlimit:10;" d="M -0.000608695 0.00012675 L 500.000195 64.252576 " transform="matrix(2.834644,0,0,-2.834644,141.732194,992.125359)"/>
<path style="fill:none;stroke-width:0.2;stroke-linecap:butt;stroke-linejoin:miter;stroke:rgb(0%,0%,100%);stroke-opacity:1;stroke-miterlimit:10;" d="M -0.000608695 0.00012675 L 500.000195 66.199745 " transform="matrix(2.834644,0,0,-2.834644,141.732194,992.125359)"/>
<path style="fill:none;stroke-width:0.2;stroke-linecap:butt;stroke-linejoin:miter;stroke:rgb(0%,0%,100%);stroke-opacity:1;stroke-miterlimit:10;" d="M -0.000608695 0.00012675 L 500.000195 68.146914 " transform="matrix(2.834644,0,0,-2.834644,141.732194,992.125359)"/>
<path style="fill:none;stroke-width:0.2;stroke-linecap:butt;stroke-linejoin:miter;stroke:rgb(0%,0%,100%);stroke-opacity:1;stroke-miterlimit:10;" d="M -0.000608695 0.00012675 L 500.000195 70.094084 " transform="matrix(2.834644,0,0,-2.834644,141.732194,992.125359)"/>
<path style="fill:none;stroke-width:0.2;stroke-linecap:butt;stroke-linejoin:miter;stroke:rgb(0%,0%,100%);stroke-opacity:1;stroke-miterlimit:10;" d="M -0.000608695 0.00012675 L 500.000195 72.039875 " transform="matrix(2.834644,0,0,-2.834644,141.732194,992.125359)"/>
<path style="fill:none;stroke-width:0.2;stroke-linecap:butt;stroke-linejoin:miter;stroke:rgb(0%,0%,100%);stroke-opacity:1;stroke-miterlimit:10;" d="M -0.000608695 0.00012675 L 500.000195 73.987044 " transform="matrix(2.834644,0,0,-2.834644,141.732194,992.125359)"/>
<path style="fill:none;stroke-width:0.2;stroke-linecap:butt;stroke-linejoin:miter;stroke:rgb(0%,0%,100%);stroke-opacity:1;stroke-miterlimit:10;" d="M -0.000608695 0.00012675 L 500.000195 75.934213 " transform="matrix(2.834644,0,0,-2.834644,141.732194,992.125359)"/>
<path style="fill:none;stroke-width:0.2;stroke-linecap:butt;stroke-linejoin:miter;stroke:rgb(0%,0%,100%);stroke-opacity:1;stroke-miterlimit:10;" d="M -0.000608695 0.00012675 L 500.000195 77.881382 " transform="matrix(2.834644,0,0,-2.834644,141.732194,992.125359)"/>
<path style="fill:none;stroke-width:0.2;stroke-linecap:butt;stroke-linejoin:miter;stroke:rgb(0%,0%,100%);stroke-opacity:1;stroke-miterlimit:10;" d="M -0.000608695 0.00012675 L 500.000195 79.828552 " transform="matrix(2.834644,0,0,-2.834644,141.732194,992.125359)"/>
<path style="fill:none;stroke-width:0.2;stroke-linecap:butt;stroke-linejoin:miter;stroke:rgb(0%,0%,100%);stroke-opacity:1;stroke-miterlimit:10;" d="M -0.000608695 0.00012675 L 500.000195 81.775721 " transform="matrix(2.834644,0,0,-2.834644,141.732194,992.125359)"/>
<path style="fill:none;stroke-width:0.2;stroke-linecap:butt;stroke-linejoin:miter;stroke:rgb(0%,0%,100%);stroke-opacity:1;stroke-miterlimit:10;" d="M -0.000608695 0.00012675 L 500.000195 83.72289 " transform="matrix(2.834644,0,0,-2.834644,141.732194,992.125359)"/>
<path style="fill:none;stroke-width:0.2;stroke-linecap:butt;stroke-linejoin:miter;stroke:rgb(0%,0%,100%);stroke-opacity:1;stroke-miterlimit:10;" d="M -0.000608695 0.00012675 L 500.000195 85.670059 " transform="matrix(2.834644,0,0,-2.834644,141.732194,992.125359)"/>
<path style="fill:none;stroke-width:0.2;stroke-linecap:butt;stroke-linejoin:miter;stroke:rgb(0%,0%,100%);stroke-opacity:1;stroke-miterlimit:10;" d="M -0.000608695 0.00012675 L 500.000195 87.617228 " transform="matrix(2.834644,0,0,-2.834644,141.732194,992.125359)"/>
<path style="fill:none;stroke-width:0.2;stroke-linecap:butt;stroke-linejoin:miter;stroke:rgb(0%,0%,100%);stroke-opacity:1;stroke-miterlimit:10;" d="M -0.000608695 0.00012675 L 500.000195 89.564398 " transform="matrix(2.834644,0,0,-2.834644,141.732194,992.125359)"/>
<path style="fill:none;stroke-width:0.2;stroke-linecap:butt;stroke-linejoin:miter;stroke:rgb(0%,0%,100%);stroke-opacity:1;stroke-miterlimit:10;" d="M -0.000608695 0.00012675 L 500.000195 91.511567 " transform="matrix(2.834644,0,0,-2.834644,141.732194,992.125359)"/>
<path style="fill:none;stroke-width:0.2;stroke-linecap:butt;stroke-linejoin:miter;stroke:rgb(0%,0%,100%);stroke-opacity:1;stroke-miterlimit:10;" d="M -0.000608695 0.00012675 L 500.000195 93.457358 " transform="matrix(2.834644,0,0,-2.834644,141.732194,992.125359)"/>
<path style="fill:none;stroke-width:0.2;stroke-linecap:butt;stroke-linejoin:miter;stroke:rgb(0%,0%,100%);stroke-opacity:1;stroke-miterlimit:10;" d="M -0.000608695 0.00012675 L 500.000195 95.404527 " transform="matrix(2.834644,0,0,-2.834644,141.732194,992.125359)"/>
<path style="fill:none;stroke-width:0.2;stroke-linecap:butt;stroke-linejoin:miter;stroke:rgb(0%,0%,100%);stroke-opacity:1;stroke-miterlimit:10;" d="M -0.000608695 0.00012675 L 500.000195 97.351696 " transform="matrix(2.834644,0,0,-2.834644,141.732194,992.125359)"/>
<path style="fill:none;stroke-width:0.2;stroke-linecap:butt;stroke-linejoin:miter;stroke:rgb(0%,0%,100%);stroke-opacity:1;stroke-miterlimit:10;" d="M -0.000608695 0.00012675 L 500.000195 99.298866 " transform="matrix(2.834644,0,0,-2.834644,141.732194,992.125359)"/>
<path style="fill:none;stroke-width:0.2;stroke-linecap:butt;stroke-linejoin:miter;stroke:rgb(0%,0%,100%);stroke-opacity:1;stroke-miterlimit:10;" d="M -0.000608695 0.00012675 L 500.000195 101.246035 " transform="matrix(2.834644,0,0,-2.834644,141.732194,992.125359)"/>
<path style="fill:none;stroke-width:0.2;stroke-linecap:butt;stroke-linejoin:miter;stroke:rgb(0%,0%,100%);stroke-opacity:1;stroke-miterlimit:10;" d="M -0.000608695 0.00012675 L 500.000195 103.193204 " transform="matrix(2.834644,0,0,-2.834644,141.732194,992.125359)"/>
<path style="fill:none;stroke-width:0.2;stroke-linecap:butt;stroke-linejoin:miter;stroke:rgb(0%,0%,100%);stroke-opacity:1;stroke-miterlimit:10;" d="M -0.000608695 0.00012675 L 500.000195 105.140373 " transform="matrix(2.834644,0,0,-2.834644,141.732194,992.125359)"/>
<path style="fill:none;stroke-width:0.2;stroke-linecap:butt;stroke-linejoin:miter;stroke:rgb(0%,0%,100%);stroke-opacity:1;stroke-miterlimit:10;" d="M -0.000608695 0.00012675 L 500.000195 107.087542 " transform="matrix(2.834644,0,0,-2.834644,141.732194,992.125359)"/>
<path style="fill:none;stroke-width:0.2;stroke-linecap:butt;stroke-linejoin:miter;stroke:rgb(0%,0%,100%);stroke-opacity:1;stroke-miterlimit:10;" d="M -0.000608695 0.00012675 L 500.000195 109.034711 " transform="matrix(2.834644,0,0,-2.834644,141.732194,992.125359)"/>
<path style="fill:none;stroke-width:0.2;stroke-linecap:butt;stroke-linejoin:miter;stroke:rgb(0%,0%,100%);stroke-opacity:1;stroke-miterlimit:10;" d="M -0.000608695 0.00012675 L 500.000195 110.981881 " transform="matrix(2.834644,0,0,-2.834644,141.732194,992.125359)"/>
<path style="fill:none;stroke-width:0.2;stroke-linecap:butt;stroke-linejoin:miter;stroke:rgb(0%,0%,100%);stroke-opacity:1;stroke-miterlimit:10;" d="M -0.000608695 0.00012675 L 500.000195 112.927672 " transform="matrix(2.834644,0,0,-2.834644,141.732194,992.125359)"/>
<path style="fill:none;stroke-width:0.2;stroke-linecap:butt;stroke-linejoin:miter;stroke:rgb(0%,0%,100%);stroke-opacity:1;stroke-miterlimit:10;" d="M -0.000608695 0.00012675 L 500.000195 114.874841 " transform="matrix(2.834644,0,0,-2.834644,141.732194,992.125359)"/>
<path style="fill:none;stroke-width:0.2;stroke-linecap:butt;stroke-linejoin:miter;stroke:rgb(0%,0%,100%);stroke-opacity:1;stroke-miterlimit:10;" d="M -0.000608695 0.00012675 L 500.000195 116.82201 " transform="matrix(2.834644,0,0,-2.834644,141.732194,992.125359)"/>
<path style="fill:none;stroke-width:0.2;stroke-linecap:butt;stroke-linejoin:miter;stroke:rgb(0%,0%,100%);stroke-opacity:1;stroke-miterlimit:10;" d="M -0.000608695 0.00012675 L 500.000195 118.769179 " transform="matrix(2.834644,0,0,-2.834644,141.732194,992.125359)"/>
<path style="fill:none;stroke-width:0.2;stroke-linecap:butt;stroke-linejoin:miter;stroke:rgb(0%,0%,100%);stroke-opacity:1;stroke-miterlimit:10;" d="M -0.000608695 0.00012675 L 500.000195 120.716349 " transform="matrix(2.834644,0,0,-2.834644,141.732194,992.125359)"/>
<path style="fill:none;stroke-width:0.2;stroke-linecap:butt;stroke-linejoin:miter;stroke:rgb(0%,0%,100%);stroke-opacity:1;stroke-miterlimit:10;" d="M -0.000608695 0.00012675 L 500.000195 122.663518 " transform="matrix(2.834644,0,0,-2.834644,141.732194,992.125359)"/>
<path style="fill:none;stroke-width:0.2;stroke-linecap:butt;stroke-linejoin:miter;stroke:rgb(0%,0%,100%);stroke-opacity:1;stroke-miterlimit:10;" d="M -0.000608695 0.00012675 L 500.000195 124.610687 " transform="matrix(2.834644,0,0,-2.834644,141.732194,992.125359)"/>
<path style="fill:none;stroke-width:0.2;stroke-linecap:butt;stroke-linejoin:miter;stroke:rgb(0%,0%,100%);stroke-opacity:1;stroke-miterlimit:10;" d="M -0.000608695 0.00012675 L 500.000195 126.557856 " transform="matrix(2.834644,0,0,-2.834644,141.732194,992.125359)"/>
<path style="fill:none;stroke-width:0.2;stroke-linecap:butt;stroke-linejoin:miter;stroke:rgb(0%,0%,100%);stroke-opacity:1;stroke-miterlimit:10;" d="M -0.000608695 0.00012675 L 500.000195 128.505025 " transform="matrix(2.834644,0,0,-2.834644,141.732194,992.125359)"/>
<path style="fill:none;stroke-width:0.2;stroke-linecap:butt;stroke-linejoin:miter;stroke:rgb(0%,0%,100%);stroke-opacity:1;stroke-miterlimit:10;" d="M -0.000608695 0.00012675 L 500.000195 130.452195 " transform="matrix(2.834644,0,0,-2.834644,141.732194,992.125359)"/>
<path style="fill:none;stroke-width:0.2;stroke-linecap:butt;stroke-linejoin:miter;stroke:rgb(0%,0%,100%);stroke-opacity:1;stroke-miterlimit:10;" d="M -0.000608695 0.00012675 L 500.000195 132.399364 " transform="matrix(2.834644,0,0,-2.834644,141.732194,992.125359)"/>
<path style="fill:none;stroke-width:0.2;stroke-linecap:butt;stroke-linejoin:miter;stroke:rgb(0%,0%,100%);stroke-opacity:1;stroke-miterlimit:10;" d="M -0.000608695 0.00012675 L 500.000195 134.345155 " transform="matrix(2.834644,0,0,-2.834644,141.732194,992.125359)"/>
<path style="fill:none;stroke-width:0.2;stroke-linecap:butt;stroke-linejoin:miter;stroke:rgb(0%,0%,100%);stroke-opacity:1;stroke-miterlimit:10;" d="M -0.000608695 0.00012675 L 500.000195 136.292324 " transform="matrix(2.834644,0,0,-2.834644,141.732194,992.125359)"/>
<path style="fill:none;stroke-width:0.2;stroke-linecap:butt;stroke-linejoin:miter;stroke:rgb(0%,0%,100%);stroke-opacity:1;stroke-miterlimit:10;" d="M -0.000608695 0.00012675 L 500.000195 138.239493 " transform="matrix(2.834644,0,0,-2.834644,141.732194,992.125359)"/>
<path style="fill:none;stroke-width:0.2;stroke-linecap:butt;stroke-linejoin:miter;stroke:rgb(0%,0%,100%);stroke-opacity:1;stroke-miterlimit:10;" d="M -0.000608695 0.00012675 L 500.000195 140.186663 " transform="matrix(2.834644,0,0,-2.834644,141.732194,992.125359)"/>
<path style="fill:none;stroke-width:0.2;stroke-linecap:butt;stroke-linejoin:miter;stroke:rgb(0%,0%,100%);stroke-opacity:1;stroke-miterlimit:10;" d="M -0.000608695 0.00012675 L 500.000195 142.133832 " transform="matrix(2.834644,0,0,-2.834644,141.732194,992.125359)"/>
<path style="fill:none;stroke-width:0.2;stroke-linecap:butt;stroke-linejoin:miter;stroke:rgb(0%,0%,100%);stroke-opacity:1;stroke-miterlimit:10;" d="M -0.000608695 0.00012675 L 500.000195 144.081001 " transform="matrix(2.834644,0,0,-2.834644,141.732194,992.125359)"/>
<path style="fill:none;stroke-width:0.2;stroke-linecap:butt;stroke-linejoin:miter;stroke:rgb(0%,0%,100%);stroke-opacity:1;stroke-miterlimit:10;" d="M -0.000608695 0.00012675 L 500.000195 146.02817 " transform="matrix(2.834644,0,0,-2.834644,141.732194,992.125359)"/>
<path style="fill:none;stroke-width:0.2;stroke-linecap:butt;stroke-linejoin:miter;stroke:rgb(0%,0%,100%);stroke-opacity:1;stroke-miterlimit:10;" d="M -0.000608695 0.00012675 L 500.000195 147.975339 " transform="matrix(2.834644,0,0,-2.834644,141.732194,992.125359)"/>
<path style="fill:none;stroke-width:0.2;stroke-linecap:butt;stroke-linejoin:miter;stroke:rgb(0%,0%,100%);stroke-opacity:1;stroke-miterlimit:10;" d="M -0.000608695 0.00012675 L 500.000195 149.922509 " transform="matrix(2.834644,0,0,-2.834644,141.732194,992.125359)"/>
<path style="fill:none;stroke-width:0.2;stroke-linecap:butt;stroke-linejoin:miter;stroke:rgb(0%,0%,100%);stroke-opacity:1;stroke-miterlimit:10;" d="M -0.000608695 0.00012675 L 500.000195 151.869678 " transform="matrix(2.834644,0,0,-2.834644,141.732194,992.125359)"/>
<path style="fill:none;stroke-width:0.2;stroke-linecap:butt;stroke-linejoin:miter;stroke:rgb(0%,0%,100%);stroke-opacity:1;stroke-miterlimit:10;" d="M -0.000608695 0.00012675 L 500.000195 153.816847 " transform="matrix(2.834644,0,0,-2.834644,141.732194,992.125359)"/>
<path style="fill:none;stroke-width:0.2;stroke-linecap:butt;stroke-linejoin:miter;stroke:rgb(0%,0%,100%);stroke-opacity:1;stroke-miterlimit:10;" d="M -0.000608695 0.00012675 L 500.000195 155.762638 " transform="matrix(2.834644,0,0,-2.834644,141.732194,992.125359)"/>
<path style="fill:none;stroke-width:0.2;stroke-linecap:butt;stroke-linejoin:miter;stroke:rgb(0%,0%,100%);stroke-opacity:1;stroke-miterlimit:10;" d="M -0.000608695 0.00012675 L 500.000195 157.709807 " transform="matrix(2.834644,0,0,-2.834644,141.732194,992.125359)"/>
<path style="fill:none;stroke-width:0.2;stroke-linecap:butt;stroke-linejoin:miter;stroke:rgb(0%,0%,100%);stroke-opacity:1;stroke-miterlimit:10;" d="M -0.000608695 0.00012675 L 500.000195 159.656976 " transform="matrix(2.834644,0,0,-2.834644,141.732194,992.125359)"/>
<path style="fill:none;stroke-width:0.2;stroke-linecap:butt;stroke-linejoin:miter;stroke:rgb(0%,0%,100%);stroke-opacity:1;stroke-miterlimit:10;" d="M -0.000608695 0.00012675 L 500.000195 161.604146 " transform="matrix(2.834644,0,0,-2.834644,141.732194,992.125359)"/>
<path style="fill:none;stroke-width:0.2;stroke-linecap:butt;stroke-linejoin:miter;stroke:rgb(0%,0%,100%);stroke-opacity:1;stroke-miterlimit:10;" d="M -0.000608695 0.00012675 L 500.000195 163.551315 " transform="matrix(2.834644,0,0,-2.834644,141.732194,992.125359)"/>
<path style="fill:none;stroke-width:0.2;stroke-linecap:butt;stroke-linejoin:miter;stroke:rgb(0%,0%,100%);stroke-opacity:1;stroke-miterlimit:10;" d="M -0.000608695 0.00012675 L 500.000195 165.498484 " transform="matrix(2.834644,0,0,-2.834644,141.732194,992.125359)"/>
<path style="fill:none;stroke-width:0.2;stroke-linecap:butt;stroke-linejoin:miter;stroke:rgb(0%,0%,100%);stroke-opacity:1;stroke-miterlimit:10;" d="M -0.000608695 0.00012675 L 500.000195 167.445653 " transform="matrix(2.834644,0,0,-2.834644,141.732194,992.125359)"/>
<path style="fill:none;stroke-width:0.2;stroke-linecap:butt;stroke-linejoin:miter;stroke:rgb(0%,0%,100%);stroke-opacity:1;stroke-miterlimit:10;" d="M -0.000608695 0.00012675 L 500.000195 169.392822 " transform="matrix(2.834644,0,0,-2.834644,141.732194,992.125359)"/>
<path style="fill:none;stroke-width:0.2;stroke-linecap:butt;stroke-linejoin:miter;stroke:rgb(0%,0%,100%);stroke-opacity:1;stroke-miterlimit:10;" d="M -0.000608695 0.00012675 L 500.000195 171.339992 " transform="matrix(2.834644,0,0,-2.834644,141.732194,992.125359)"/>
<path style="fill:none;stroke-width:0.2;stroke-linecap:butt;stroke-linejoin:miter;stroke:rgb(0%,0%,100%);stroke-opacity:1;stroke-miterlimit:10;" d="M -0.000608695 0.00012675 L 500.000195 173.287161 " transform="matrix(2.834644,0,0,-2.834644,141.732194,992.125359)"/>
<path style="fill:none;stroke-width:0.2;stroke-linecap:butt;stroke-linejoin:miter;stroke:rgb(0%,0%,100%);stroke-opacity:1;stroke-miterlimit:10;" d="M -0.000608695 0.00012675 L 500.000195 175.23433 " transform="matrix(2.834644,0,0,-2.834644,141.732194,992.125359)"/>
<path style="fill:none;stroke-width:0.2;stroke-linecap:butt;stroke-linejoin:miter;stroke:rgb(0%,0%,100%);stroke-opacity:1;stroke-miterlimit:10;" d="M -0.000608695 0.00012675 L 500.000195 177.180121 " transform="matrix(2.834644,0,0,-2.834644,141.732194,992.125359)"/>
<path style="fill:none;stroke-width:0.2;stroke-linecap:butt;stroke-linejoin:miter;stroke:rgb(0%,0%,100%);stroke-opacity:1;stroke-miterlimit:10;" d="M -0.000608695 0.00012675 L 500.000195 179.12729 " transform="matrix(2.834644,0,0,-2.834644,141.732194,992.125359)"/>
<path style="fill:none;stroke-width:0.2;stroke-linecap:butt;stroke-linejoin:miter;stroke:rgb(0%,0%,100%);stroke-opacity:1;stroke-miterlimit:10;" d="M -0.000608695 0.00012675 L 500.000195 181.07446 " transform="matrix(2.834644,0,0,-2.834644,141.732194,992.125359)"/>
<path style="fill:none;stroke-width:0.2;stroke-linecap:butt;stroke-linejoin:miter;stroke:rgb(0%,0%,100%);stroke-opacity:1;stroke-miterlimit:10;" d="M -0.000608695 0.00012675 L 500.000195 183.021629 " transform="matrix(2.834644,0,0,-2.834644,141.732194,992.125359)"/>
<path style="fill:none;stroke-width:0.2;stroke-linecap:butt;stroke-linejoin:miter;stroke:rgb(0%,0%,100%);stroke-opacity:1;stroke-miterlimit:10;" d="M -0.000608695 0.00012675 L 500.000195 184.968798 " transform="matrix(2.834644,0,0,-2.834644,141.732194,992.125359)"/>
<path style="fill:none;stroke-width:0.2;stroke-linecap:butt;stroke-linejoin:miter;stroke:rgb(0%,0%,100%);stroke-opacity:1;stroke-miterlimit:10;" d="M -0.000608695 0.00012675 L 500.000195 186.915967 " transform="matrix(2.834644,0,0,-2.834644,141.732194,992.125359)"/>
<path style="fill:none;stroke-width:0.2;stroke-linecap:butt;stroke-linejoin:miter;stroke:rgb(0%,0%,100%);stroke-opacity:1;stroke-miterlimit:10;" d="M -0.000608695 0.00012675 L 500.000195 188.863136 " transform="matrix(2.834644,0,0,-2.834644,141.732194,992.125359)"/>
<path style="fill:none;stroke-width:0.2;stroke-linecap:butt;stroke-linejoin:miter;stroke:rgb(0%,0%,100%);stroke-opacity:1;stroke-miterlimit:10;" d="M -0.000608695 0.00012675 L 500.000195 190.810306 " transform="matrix(2.834644,0,0,-2.834644,141.732194,992.125359)"/>
<path style="fill:none;stroke-width:0.2;stroke-linecap:butt;stroke-linejoin:miter;stroke:rgb(0%,0%,100%);stroke-opacity:1;stroke-miterlimit:10;" d="M -0.000608695 0.00012675 L 500.000195 192.757475 " transform="matrix(2.834644,0,0,-2.834644,141.732194,992.125359)"/>
<path style="fill:none;stroke-width:0.2;stroke-linecap:butt;stroke-linejoin:miter;stroke:rgb(0%,0%,100%);stroke-opacity:1;stroke-miterlimit:10;" d="M -0.000608695 0.00012675 L 500.000195 194.704644 " transform="matrix(2.834644,0,0,-2.834644,141.732194,992.125359)"/>
<path style="fill:none;stroke-width:0.2;stroke-linecap:butt;stroke-linejoin:miter;stroke:rgb(0%,0%,100%);stroke-opacity:1;stroke-miterlimit:10;" d="M -0.000608695 0.00012675 L 500.000195 196.650435 " transform="matrix(2.834644,0,0,-2.834644,141.732194,992.125359)"/>
<path style="fill:none;stroke-width:0.2;stroke-linecap:butt;stroke-linejoin:miter;stroke:rgb(0%,0%,100%);stroke-opacity:1;stroke-miterlimit:10;" d="M -0.000608695 0.00012675 L 500.000195 198.597604 " transform="matrix(2.834644,0,0,-2.834644,141.732194,992.125359)"/>
<path style="fill:none;stroke-width:0.2;stroke-linecap:butt;stroke-linejoin:miter;stroke:rgb(0%,0%,100%);stroke-opacity:1;stroke-miterlimit:10;" d="M -0.000608695 0.00012675 L 500.000195 200.544773 " transform="matrix(2.834644,0,0,-2.834644,141.732194,992.125359)"/>
<path style="fill:none;stroke-width:0.2;stroke-linecap:butt;stroke-linejoin:miter;stroke:rgb(0%,0%,100%);stroke-opacity:1;stroke-miterlimit:10;" d="M -0.000608695 0.00012675 L 500.000195 202.491943 " transform="matrix(2.834644,0,0,-2.834644,141.732194,992.125359)"/>
<path style="fill:none;stroke-width:0.2;stroke-linecap:butt;stroke-linejoin:miter;stroke:rgb(0%,0%,100%);stroke-opacity:1;stroke-miterlimit:10;" d="M -0.000608695 0.00012675 L 500.000195 204.439112 " transform="matrix(2.834644,0,0,-2.834644,141.732194,992.125359)"/>
<path style="fill:none;stroke-width:0.2;stroke-linecap:butt;stroke-linejoin:miter;stroke:rgb(0%,0%,100%);stroke-opacity:1;stroke-miterlimit:10;" d="M -0.000608695 0.00012675 L 500.000195 206.386281 " transform="matrix(2.834644,0,0,-2.834644,141.732194,992.125359)"/>
<path style="fill:none;stroke-width:0.2;stroke-linecap:butt;stroke-linejoin:miter;stroke:rgb(0%,0%,100%);stroke-opacity:1;stroke-miterlimit:10;" d="M -0.000608695 0.00012675 L 500.000195 208.33345 " transform="matrix(2.834644,0,0,-2.834644,141.732194,992.125359)"/>
<path style="fill:none;stroke-width:0.2;stroke-linecap:butt;stroke-linejoin:miter;stroke:rgb(100%,0%,0%);stroke-opacity:1;stroke-miterlimit:10;" d="M 199.999713 0.00012675 L 500.000195 0.00012675 " transform="matrix(2.834644,0,0,-2.834644,141.732194,992.125359)"/>
<path style="fill:none;stroke-width:0.2;stroke-linecap:butt;stroke-linejoin:miter;stroke:rgb(100%,0%,0%);stroke-opacity:1;stroke-miterlimit:10;" d="M 199.999713 0.00012675 L 499.921646 6.850359 " transform="matrix(2.834644,0,0,-2.834644,141.732194,992.125359)"/>
<path style="fill:none;stroke-width:0.2;stroke-linecap:butt;stroke-linejoin:miter;stroke:rgb(100%,0%,0%);stroke-opacity:1;stroke-miterlimit:10;" d="M 199.999713 0.00012675 L 499.68738 13.696457 " transform="matrix(2.834644,0,0,-2.834644,141.732194,992.125359)"/>
<path style="fill:none;stroke-width:0.2;stroke-linecap:butt;stroke-linejoin:miter;stroke:rgb(100%,0%,0%);stroke-opacity:1;stroke-miterlimit:10;" d="M 199.999713 0.00012675 L 499.296017 20.537043 " transform="matrix(2.834644,0,0,-2.834644,141.732194,992.125359)"/>
<path style="fill:none;stroke-width:0.2;stroke-linecap:butt;stroke-linejoin:miter;stroke:rgb(100%,0%,0%);stroke-opacity:1;stroke-miterlimit:10;" d="M 199.999713 0.00012675 L 498.748935 27.365226 " transform="matrix(2.834644,0,0,-2.834644,141.732194,992.125359)"/>
<path style="fill:none;stroke-width:0.2;stroke-linecap:butt;stroke-linejoin:miter;stroke:rgb(100%,0%,0%);stroke-opacity:1;stroke-miterlimit:10;" d="M 199.999713 0.00012675 L 498.046135 34.17963 " transform="matrix(2.834644,0,0,-2.834644,141.732194,992.125359)"/>
<path style="fill:none;stroke-width:0.2;stroke-linecap:butt;stroke-linejoin:miter;stroke:rgb(100%,0%,0%);stroke-opacity:1;stroke-miterlimit:10;" d="M 199.999713 0.00012675 L 497.188995 40.976118 " transform="matrix(2.834644,0,0,-2.834644,141.732194,992.125359)"/>
<path style="fill:none;stroke-width:0.2;stroke-linecap:butt;stroke-linejoin:miter;stroke:rgb(100%,0%,0%);stroke-opacity:1;stroke-miterlimit:10;" d="M 199.999713 0.00012675 L 496.174758 47.751936 " transform="matrix(2.834644,0,0,-2.834644,141.732194,992.125359)"/>
<path style="fill:none;stroke-width:0.2;stroke-linecap:butt;stroke-linejoin:miter;stroke:rgb(100%,0%,0%);stroke-opacity:1;stroke-miterlimit:10;" d="M 199.999713 0.00012675 L 495.007559 54.501572 " transform="matrix(2.834644,0,0,-2.834644,141.732194,992.125359)"/>
<path style="fill:none;stroke-width:0.2;stroke-linecap:butt;stroke-linejoin:miter;stroke:rgb(100%,0%,0%);stroke-opacity:1;stroke-miterlimit:10;" d="M 199.999713 0.00012675 L 493.68602 61.223646 " transform="matrix(2.834644,0,0,-2.834644,141.732194,992.125359)"/>
<path style="fill:none;stroke-width:0.2;stroke-linecap:butt;stroke-linejoin:miter;stroke:rgb(100%,0%,0%);stroke-opacity:1;stroke-miterlimit:10;" d="M 199.999713 0.00012675 L 492.211518 67.914026 " transform="matrix(2.834644,0,0,-2.834644,141.732194,992.125359)"/>
<path style="fill:none;stroke-width:0.2;stroke-linecap:butt;stroke-linejoin:miter;stroke:rgb(100%,0%,0%);stroke-opacity:1;stroke-miterlimit:10;" d="M 199.999713 0.00012675 L 490.584054 74.568577 " transform="matrix(2.834644,0,0,-2.834644,141.732194,992.125359)"/>
<path style="fill:none;stroke-width:0.2;stroke-linecap:butt;stroke-linejoin:miter;stroke:rgb(100%,0%,0%);stroke-opacity:1;stroke-miterlimit:10;" d="M 199.999713 0.00012675 L 488.806383 81.184542 " transform="matrix(2.834644,0,0,-2.834644,141.732194,992.125359)"/>
<path style="fill:none;stroke-width:0.2;stroke-linecap:butt;stroke-linejoin:miter;stroke:rgb(100%,0%,0%);stroke-opacity:1;stroke-miterlimit:10;" d="M 199.999713 0.00012675 L 486.877129 87.757788 " transform="matrix(2.834644,0,0,-2.834644,141.732194,992.125359)"/>
<path style="fill:none;stroke-width:0.2;stroke-linecap:butt;stroke-linejoin:miter;stroke:rgb(100%,0%,0%);stroke-opacity:1;stroke-miterlimit:10;" d="M 199.999713 0.00012675 L 484.799046 94.285559 " transform="matrix(2.834644,0,0,-2.834644,141.732194,992.125359)"/>
<path style="fill:none;stroke-width:0.2;stroke-linecap:butt;stroke-linejoin:miter;stroke:rgb(100%,0%,0%);stroke-opacity:1;stroke-miterlimit:10;" d="M 199.999713 0.00012675 L 482.570756 100.765099 " transform="matrix(2.834644,0,0,-2.834644,141.732194,992.125359)"/>
<path style="fill:none;stroke-width:0.2;stroke-linecap:butt;stroke-linejoin:miter;stroke:rgb(100%,0%,0%);stroke-opacity:1;stroke-miterlimit:10;" d="M 199.999713 0.00012675 L 480.196395 107.190895 " transform="matrix(2.834644,0,0,-2.834644,141.732194,992.125359)"/>
<path style="fill:none;stroke-width:0.2;stroke-linecap:butt;stroke-linejoin:miter;stroke:rgb(100%,0%,0%);stroke-opacity:1;stroke-miterlimit:10;" d="M 199.999713 0.00012675 L 477.675962 113.560192 " transform="matrix(2.834644,0,0,-2.834644,141.732194,992.125359)"/>
<path style="fill:none;stroke-width:0.2;stroke-linecap:butt;stroke-linejoin:miter;stroke:rgb(100%,0%,0%);stroke-opacity:1;stroke-miterlimit:10;" d="M 199.999713 0.00012675 L 475.010834 119.871611 " transform="matrix(2.834644,0,0,-2.834644,141.732194,992.125359)"/>
<path style="fill:none;stroke-width:0.2;stroke-linecap:butt;stroke-linejoin:miter;stroke:rgb(100%,0%,0%);stroke-opacity:1;stroke-miterlimit:10;" d="M 199.999713 0.00012675 L 472.202391 126.11964 " transform="matrix(2.834644,0,0,-2.834644,141.732194,992.125359)"/>
<path style="fill:none;stroke-width:0.2;stroke-linecap:butt;stroke-linejoin:miter;stroke:rgb(100%,0%,0%);stroke-opacity:1;stroke-miterlimit:10;" d="M 199.999713 0.00012675 L 469.250631 132.302901 " transform="matrix(2.834644,0,0,-2.834644,141.732194,992.125359)"/>
<path style="fill:none;stroke-width:0.2;stroke-linecap:butt;stroke-linejoin:miter;stroke:rgb(100%,0%,0%);stroke-opacity:1;stroke-miterlimit:10;" d="M 199.999713 0.00012675 L 466.159689 138.415882 " transform="matrix(2.834644,0,0,-2.834644,141.732194,992.125359)"/>
<path style="fill:none;stroke-width:0.2;stroke-linecap:butt;stroke-linejoin:miter;stroke:rgb(100%,0%,0%);stroke-opacity:1;stroke-miterlimit:10;" d="M 199.999713 0.00012675 L 462.929566 144.457206 " transform="matrix(2.834644,0,0,-2.834644,141.732194,992.125359)"/>
<path style="fill:none;stroke-width:0.2;stroke-linecap:butt;stroke-linejoin:miter;stroke:rgb(100%,0%,0%);stroke-opacity:1;stroke-miterlimit:10;" d="M 199.999713 0.00012675 L 459.563016 150.424115 " transform="matrix(2.834644,0,0,-2.834644,141.732194,992.125359)"/>
<path style="fill:none;stroke-width:0.2;stroke-linecap:butt;stroke-linejoin:miter;stroke:rgb(100%,0%,0%);stroke-opacity:1;stroke-miterlimit:10;" d="M 199.999713 0.00012675 L 456.060041 156.311098 " transform="matrix(2.834644,0,0,-2.834644,141.732194,992.125359)"/>
<path style="fill:none;stroke-width:0.2;stroke-linecap:butt;stroke-linejoin:miter;stroke:rgb(100%,0%,0%);stroke-opacity:1;stroke-miterlimit:10;" d="M 199.999713 0.00012675 L 452.424774 162.116776 " transform="matrix(2.834644,0,0,-2.834644,141.732194,992.125359)"/>
<path style="fill:none;stroke-width:0.2;stroke-linecap:butt;stroke-linejoin:miter;stroke:rgb(100%,0%,0%);stroke-opacity:1;stroke-miterlimit:10;" d="M 199.999713 0.00012675 L 448.657215 167.838394 " transform="matrix(2.834644,0,0,-2.834644,141.732194,992.125359)"/>
<path style="fill:none;stroke-width:0.2;stroke-linecap:butt;stroke-linejoin:miter;stroke:rgb(100%,0%,0%);stroke-opacity:1;stroke-miterlimit:10;" d="M 199.999713 0.00012675 L 444.758743 173.473196 " transform="matrix(2.834644,0,0,-2.834644,141.732194,992.125359)"/>
<path style="fill:none;stroke-width:0.2;stroke-linecap:butt;stroke-linejoin:miter;stroke:rgb(100%,0%,0%);stroke-opacity:1;stroke-miterlimit:10;" d="M 199.999713 0.00012675 L 440.734869 179.017047 " transform="matrix(2.834644,0,0,-2.834644,141.732194,992.125359)"/>
<path style="fill:none;stroke-width:0.2;stroke-linecap:butt;stroke-linejoin:miter;stroke:rgb(100%,0%,0%);stroke-opacity:1;stroke-miterlimit:10;" d="M 199.999713 0.00012675 L 436.584215 184.467192 " transform="matrix(2.834644,0,0,-2.834644,141.732194,992.125359)"/>
<path style="fill:none;stroke-width:0.2;stroke-linecap:butt;stroke-linejoin:miter;stroke:rgb(100%,0%,0%);stroke-opacity:1;stroke-miterlimit:10;" d="M 199.999713 0.00012675 L 432.309538 189.820873 " transform="matrix(2.834644,0,0,-2.834644,141.732194,992.125359)"/>
<path style="fill:none;stroke-width:0.2;stroke-linecap:butt;stroke-linejoin:miter;stroke:rgb(100%,0%,0%);stroke-opacity:1;stroke-miterlimit:10;" d="M 199.999713 0.00012675 L 427.914971 195.076714 " transform="matrix(2.834644,0,0,-2.834644,141.732194,992.125359)"/>
<path style="fill:none;stroke-width:0.2;stroke-linecap:butt;stroke-linejoin:miter;stroke:rgb(100%,0%,0%);stroke-opacity:1;stroke-miterlimit:10;" d="M 199.999713 0.00012675 L 423.401893 200.229203 " transform="matrix(2.834644,0,0,-2.834644,141.732194,992.125359)"/>
<path style="fill:none;stroke-width:0.2;stroke-linecap:butt;stroke-linejoin:miter;stroke:rgb(100%,0%,0%);stroke-opacity:1;stroke-miterlimit:10;" d="M 199.999713 0.00012675 L 418.770304 205.278338 " transform="matrix(2.834644,0,0,-2.834644,141.732194,992.125359)"/>
<path style="fill:none;stroke-width:0.2;stroke-linecap:butt;stroke-linejoin:miter;stroke:rgb(100%,0%,0%);stroke-opacity:1;stroke-miterlimit:10;" d="M 199.999713 0.00012675 L 414.027094 210.219986 " transform="matrix(2.834644,0,0,-2.834644,141.732194,992.125359)"/>
<path style="fill:none;stroke-width:0.2;stroke-linecap:butt;stroke-linejoin:miter;stroke:rgb(100%,0%,0%);stroke-opacity:1;stroke-miterlimit:10;" d="M 199.999713 0.00012675 L 409.170884 215.052769 " transform="matrix(2.834644,0,0,-2.834644,141.732194,992.125359)"/>
<path style="fill:none;stroke-width:0.2;stroke-linecap:butt;stroke-linejoin:miter;stroke:rgb(100%,0%,0%);stroke-opacity:1;stroke-miterlimit:10;" d="M 199.999713 0.00012675 L 404.205809 219.772553 " transform="matrix(2.834644,0,0,-2.834644,141.732194,992.125359)"/>
<path style="fill:none;stroke-width:0.2;stroke-linecap:butt;stroke-linejoin:miter;stroke:rgb(100%,0%,0%);stroke-opacity:1;stroke-miterlimit:10;" d="M 199.999713 0.00012675 L 399.134625 224.377959 " transform="matrix(2.834644,0,0,-2.834644,141.732194,992.125359)"/>
<path style="fill:none;stroke-width:0.2;stroke-linecap:butt;stroke-linejoin:miter;stroke:rgb(100%,0%,0%);stroke-opacity:1;stroke-miterlimit:10;" d="M 199.999713 0.00012675 L 393.958711 228.86761 " transform="matrix(2.834644,0,0,-2.834644,141.732194,992.125359)"/>
<path style="fill:none;stroke-width:0.2;stroke-linecap:butt;stroke-linejoin:miter;stroke:rgb(100%,0%,0%);stroke-opacity:1;stroke-miterlimit:10;" d="M 199.999713 0.00012675 L 388.682199 233.235994 " transform="matrix(2.834644,0,0,-2.834644,141.732194,992.125359)"/>
<path style="fill:none;stroke-width:0.2;stroke-linecap:butt;stroke-linejoin:miter;stroke:rgb(100%,0%,0%);stroke-opacity:1;stroke-miterlimit:10;" d="M 199.999713 0.00012675 L 383.306469 237.483111 " transform="matrix(2.834644,0,0,-2.834644,141.732194,992.125359)"/>
<path style="fill:none;stroke-width:0.2;stroke-linecap:butt;stroke-linejoin:miter;stroke:rgb(100%,0%,0%);stroke-opacity:1;stroke-miterlimit:10;" d="M 199.999713 0.00012675 L 377.837032 241.607581 " transform="matrix(2.834644,0,0,-2.834644,141.732194,992.125359)"/>
<path style="fill:none;stroke-width:0.2;stroke-linecap:butt;stroke-linejoin:miter;stroke:rgb(100%,0%,0%);stroke-opacity:1;stroke-miterlimit:10;" d="M 199.999713 0.00012675 L 372.273888 245.605273 " transform="matrix(2.834644,0,0,-2.834644,141.732194,992.125359)"/>
<path style="fill:none;stroke-width:0.2;stroke-linecap:butt;stroke-linejoin:miter;stroke:rgb(100%,0%,0%);stroke-opacity:1;stroke-miterlimit:10;" d="M 199.999713 0.00012675 L 366.619794 249.474806 " transform="matrix(2.834644,0,0,-2.834644,141.732194,992.125359)"/>
<path style="fill:none;stroke-width:0.2;stroke-linecap:butt;stroke-linejoin:miter;stroke:rgb(100%,0%,0%);stroke-opacity:1;stroke-miterlimit:10;" d="M 199.999713 0.00012675 L 360.880261 253.214804 " transform="matrix(2.834644,0,0,-2.834644,141.732194,992.125359)"/>
<path style="fill:none;stroke-width:0.2;stroke-linecap:butt;stroke-linejoin:miter;stroke:rgb(100%,0%,0%);stroke-opacity:1;stroke-miterlimit:10;" d="M 199.999713 0.00012675 L 355.056668 256.822511 " transform="matrix(2.834644,0,0,-2.834644,141.732194,992.125359)"/>
<path style="fill:none;stroke-width:0.2;stroke-linecap:butt;stroke-linejoin:miter;stroke:rgb(100%,0%,0%);stroke-opacity:1;stroke-miterlimit:10;" d="M 199.999713 0.00012675 L 349.151771 260.295169 " transform="matrix(2.834644,0,0,-2.834644,141.732194,992.125359)"/>
<path style="fill:none;stroke-width:0.2;stroke-linecap:butt;stroke-linejoin:miter;stroke:rgb(100%,0%,0%);stroke-opacity:1;stroke-miterlimit:10;" d="M 199.999713 0.00012675 L 343.169703 263.63278 " transform="matrix(2.834644,0,0,-2.834644,141.732194,992.125359)"/>
<path style="fill:none;stroke-width:0.2;stroke-linecap:butt;stroke-linejoin:miter;stroke:rgb(100%,0%,0%);stroke-opacity:1;stroke-miterlimit:10;" d="M 199.999713 0.00012675 L 337.111843 266.833965 " transform="matrix(2.834644,0,0,-2.834644,141.732194,992.125359)"/>
<path style="fill:none;stroke-width:0.2;stroke-linecap:butt;stroke-linejoin:miter;stroke:rgb(100%,0%,0%);stroke-opacity:1;stroke-miterlimit:10;" d="M 199.999713 0.00012675 L 330.983704 269.894589 " transform="matrix(2.834644,0,0,-2.834644,141.732194,992.125359)"/>
<path style="fill:none;stroke-width:0.2;stroke-linecap:butt;stroke-linejoin:miter;stroke:rgb(100%,0%,0%);stroke-opacity:1;stroke-miterlimit:10;" d="M 199.999713 0.00012675 L 324.786662 272.816032 " transform="matrix(2.834644,0,0,-2.834644,141.732194,992.125359)"/>
<path style="fill:none;stroke-width:0.2;stroke-linecap:butt;stroke-linejoin:miter;stroke:rgb(100%,0%,0%);stroke-opacity:1;stroke-miterlimit:10;" d="M 199.999713 0.00012675 L 318.524852 275.594159 " transform="matrix(2.834644,0,0,-2.834644,141.732194,992.125359)"/>
<path style="fill:none;stroke-width:0.2;stroke-linecap:butt;stroke-linejoin:miter;stroke:rgb(100%,0%,0%);stroke-opacity:1;stroke-miterlimit:10;" d="M 199.999713 0.00012675 L 312.201031 278.22897 " transform="matrix(2.834644,0,0,-2.834644,141.732194,992.125359)"/>
<path style="fill:none;stroke-width:0.2;stroke-linecap:butt;stroke-linejoin:miter;stroke:rgb(100%,0%,0%);stroke-opacity:1;stroke-miterlimit:10;" d="M 199.999713 0.00012675 L 305.817954 280.717708 " transform="matrix(2.834644,0,0,-2.834644,141.732194,992.125359)"/>
<path style="fill:none;stroke-width:0.2;stroke-linecap:butt;stroke-linejoin:miter;stroke:rgb(100%,0%,0%);stroke-opacity:1;stroke-miterlimit:10;" d="M 199.999713 0.00012675 L 299.381134 283.060375 " transform="matrix(2.834644,0,0,-2.834644,141.732194,992.125359)"/>
<path style="fill:none;stroke-width:0.2;stroke-linecap:butt;stroke-linejoin:miter;stroke:rgb(100%,0%,0%);stroke-opacity:1;stroke-miterlimit:10;" d="M 199.999713 0.00012675 L 292.89057 285.256969 " transform="matrix(2.834644,0,0,-2.834644,141.732194,992.125359)"/>
<path style="fill:none;stroke-width:0.2;stroke-linecap:butt;stroke-linejoin:miter;stroke:rgb(100%,0%,0%);stroke-opacity:1;stroke-miterlimit:10;" d="M 199.999713 0.00012675 L 286.353152 287.303357 " transform="matrix(2.834644,0,0,-2.834644,141.732194,992.125359)"/>
<path style="fill:none;stroke-width:0.2;stroke-linecap:butt;stroke-linejoin:miter;stroke:rgb(100%,0%,0%);stroke-opacity:1;stroke-miterlimit:10;" d="M 199.999713 0.00012675 L 279.77026 289.199539 " transform="matrix(2.834644,0,0,-2.834644,141.732194,992.125359)"/>
<path style="fill:none;stroke-width:0.2;stroke-linecap:butt;stroke-linejoin:miter;stroke:rgb(100%,0%,0%);stroke-opacity:1;stroke-miterlimit:10;" d="M 199.999713 0.00012675 L 273.146026 290.945514 " transform="matrix(2.834644,0,0,-2.834644,141.732194,992.125359)"/>
<path style="fill:none;stroke-width:0.2;stroke-linecap:butt;stroke-linejoin:miter;stroke:rgb(100%,0%,0%);stroke-opacity:1;stroke-miterlimit:10;" d="M 199.999713 0.00012675 L 266.483207 292.539905 " transform="matrix(2.834644,0,0,-2.834644,141.732194,992.125359)"/>
<path style="fill:none;stroke-width:0.2;stroke-linecap:butt;stroke-linejoin:miter;stroke:rgb(100%,0%,0%);stroke-opacity:1;stroke-miterlimit:10;" d="M 199.999713 0.00012675 L 259.785937 293.982712 " transform="matrix(2.834644,0,0,-2.834644,141.732194,992.125359)"/>
<path style="fill:none;stroke-width:0.2;stroke-linecap:butt;stroke-linejoin:miter;stroke:rgb(100%,0%,0%);stroke-opacity:1;stroke-miterlimit:10;" d="M 199.999713 0.00012675 L 253.058351 295.271179 " transform="matrix(2.834644,0,0,-2.834644,141.732194,992.125359)"/>
<path style="fill:none;stroke-width:0.2;stroke-linecap:butt;stroke-linejoin:miter;stroke:rgb(100%,0%,0%);stroke-opacity:1;stroke-miterlimit:10;" d="M 199.999713 0.00012675 L 246.301825 296.405305 " transform="matrix(2.834644,0,0,-2.834644,141.732194,992.125359)"/>
<path style="fill:none;stroke-width:0.2;stroke-linecap:butt;stroke-linejoin:miter;stroke:rgb(100%,0%,0%);stroke-opacity:1;stroke-miterlimit:10;" d="M 199.999713 0.00012675 L 239.521873 297.385091 " transform="matrix(2.834644,0,0,-2.834644,141.732194,992.125359)"/>
<path style="fill:none;stroke-width:0.2;stroke-linecap:butt;stroke-linejoin:miter;stroke:rgb(100%,0%,0%);stroke-opacity:1;stroke-miterlimit:10;" d="M 199.999713 0.00012675 L 232.72125 298.210536 " transform="matrix(2.834644,0,0,-2.834644,141.732194,992.125359)"/>
<path style="fill:none;stroke-width:0.2;stroke-linecap:butt;stroke-linejoin:miter;stroke:rgb(100%,0%,0%);stroke-opacity:1;stroke-miterlimit:10;" d="M 199.999713 0.00012675 L 225.902713 298.880263 " transform="matrix(2.834644,0,0,-2.834644,141.732194,992.125359)"/>
<path style="fill:none;stroke-width:0.2;stroke-linecap:butt;stroke-linejoin:miter;stroke:rgb(100%,0%,0%);stroke-opacity:1;stroke-miterlimit:10;" d="M 199.999713 0.00012675 L 219.071773 299.392893 " transform="matrix(2.834644,0,0,-2.834644,141.732194,992.125359)"/>
<path style="fill:none;stroke-width:0.2;stroke-linecap:butt;stroke-linejoin:miter;stroke:rgb(100%,0%,0%);stroke-opacity:1;stroke-miterlimit:10;" d="M 199.999713 0.00012675 L 212.229809 299.751184 " transform="matrix(2.834644,0,0,-2.834644,141.732194,992.125359)"/>
<path style="fill:none;stroke-width:0.2;stroke-linecap:butt;stroke-linejoin:miter;stroke:rgb(100%,0%,0%);stroke-opacity:1;stroke-miterlimit:10;" d="M 199.999713 0.00012675 L 205.382333 299.952377 " transform="matrix(2.834644,0,0,-2.834644,141.732194,992.125359)"/>
<path style="fill:none;stroke-width:0.2;stroke-linecap:butt;stroke-linejoin:miter;stroke:rgb(100%,0%,0%);stroke-opacity:1;stroke-miterlimit:10;" d="M 199.999713 0.00012675 L 198.532101 299.996475 " transform="matrix(2.834644,0,0,-2.834644,141.732194,992.125359)"/>
<path style="fill:none;stroke-width:0.2;stroke-linecap:butt;stroke-linejoin:miter;stroke:rgb(100%,0%,0%);stroke-opacity:1;stroke-miterlimit:10;" d="M 199.999713 0.00012675 L 191.681869 299.884853 " transform="matrix(2.834644,0,0,-2.834644,141.732194,992.125359)"/>
<path style="fill:none;stroke-width:0.2;stroke-linecap:butt;stroke-linejoin:miter;stroke:rgb(100%,0%,0%);stroke-opacity:1;stroke-miterlimit:10;" d="M 199.999713 0.00012675 L 184.837149 299.616136 " transform="matrix(2.834644,0,0,-2.834644,141.732194,992.125359)"/>
<path style="fill:none;stroke-width:0.2;stroke-linecap:butt;stroke-linejoin:miter;stroke:rgb(100%,0%,0%);stroke-opacity:1;stroke-miterlimit:10;" d="M 199.999713 0.00012675 L 177.999319 299.1917 " transform="matrix(2.834644,0,0,-2.834644,141.732194,992.125359)"/>
<path style="fill:none;stroke-width:0.2;stroke-linecap:butt;stroke-linejoin:miter;stroke:rgb(100%,0%,0%);stroke-opacity:1;stroke-miterlimit:10;" d="M 199.999713 0.00012675 L 171.173891 298.611545 " transform="matrix(2.834644,0,0,-2.834644,141.732194,992.125359)"/>
<path style="fill:none;stroke-width:0.2;stroke-linecap:butt;stroke-linejoin:miter;stroke:rgb(100%,0%,0%);stroke-opacity:1;stroke-miterlimit:10;" d="M 199.999713 0.00012675 L 164.362244 297.875672 " transform="matrix(2.834644,0,0,-2.834644,141.732194,992.125359)"/>
<path style="fill:none;stroke-width:0.2;stroke-linecap:butt;stroke-linejoin:miter;stroke:rgb(100%,0%,0%);stroke-opacity:1;stroke-miterlimit:10;" d="M 199.999713 0.00012675 L 157.56989 296.984081 " transform="matrix(2.834644,0,0,-2.834644,141.732194,992.125359)"/>
<path style="fill:none;stroke-width:0.2;stroke-linecap:butt;stroke-linejoin:miter;stroke:rgb(100%,0%,0%);stroke-opacity:1;stroke-miterlimit:10;" d="M 199.999713 0.00012675 L 150.799584 295.93815 " transform="matrix(2.834644,0,0,-2.834644,141.732194,992.125359)"/>
<path style="fill:none;stroke-width:0.2;stroke-linecap:butt;stroke-linejoin:miter;stroke:rgb(100%,0%,0%);stroke-opacity:1;stroke-miterlimit:10;" d="M 199.999713 0.00012675 L 144.055461 294.737878 " transform="matrix(2.834644,0,0,-2.834644,141.732194,992.125359)"/>
<path style="fill:none;stroke-width:0.2;stroke-linecap:butt;stroke-linejoin:miter;stroke:rgb(100%,0%,0%);stroke-opacity:1;stroke-miterlimit:10;" d="M 199.999713 0.00012675 L 137.338898 293.383265 " transform="matrix(2.834644,0,0,-2.834644,141.732194,992.125359)"/>
<path style="fill:none;stroke-width:0.2;stroke-linecap:butt;stroke-linejoin:miter;stroke:rgb(100%,0%,0%);stroke-opacity:1;stroke-miterlimit:10;" d="M 199.999713 0.00012675 L 130.656787 291.87569 " transform="matrix(2.834644,0,0,-2.834644,141.732194,992.125359)"/>
<path style="fill:none;stroke-width:0.2;stroke-linecap:butt;stroke-linejoin:miter;stroke:rgb(100%,0%,0%);stroke-opacity:1;stroke-miterlimit:10;" d="M 199.999713 0.00012675 L 124.010505 290.216531 " transform="matrix(2.834644,0,0,-2.834644,141.732194,992.125359)"/>
<path style="fill:none;stroke-width:0.2;stroke-linecap:butt;stroke-linejoin:miter;stroke:rgb(100%,0%,0%);stroke-opacity:1;stroke-miterlimit:10;" d="M 199.999713 0.00012675 L 117.402807 288.405788 " transform="matrix(2.834644,0,0,-2.834644,141.732194,992.125359)"/>
<path style="fill:none;stroke-width:0.2;stroke-linecap:butt;stroke-linejoin:miter;stroke:rgb(100%,0%,0%);stroke-opacity:1;stroke-miterlimit:10;" d="M 199.999713 0.00012675 L 110.839207 286.444838 " transform="matrix(2.834644,0,0,-2.834644,141.732194,992.125359)"/>
<path style="fill:none;stroke-width:0.2;stroke-linecap:butt;stroke-linejoin:miter;stroke:rgb(100%,0%,0%);stroke-opacity:1;stroke-miterlimit:10;" d="M 199.999713 0.00012675 L 104.321082 284.333683 " transform="matrix(2.834644,0,0,-2.834644,141.732194,992.125359)"/>
<path style="fill:none;stroke-width:0.2;stroke-linecap:butt;stroke-linejoin:miter;stroke:rgb(100%,0%,0%);stroke-opacity:1;stroke-miterlimit:10;" d="M 199.999713 0.00012675 L 97.853945 282.075077 " transform="matrix(2.834644,0,0,-2.834644,141.732194,992.125359)"/>
<path style="fill:none;stroke-width:0.2;stroke-linecap:butt;stroke-linejoin:miter;stroke:rgb(100%,0%,0%);stroke-opacity:1;stroke-miterlimit:10;" d="M 199.999713 0.00012675 L 91.439173 279.66902 " transform="matrix(2.834644,0,0,-2.834644,141.732194,992.125359)"/>
<path style="fill:none;stroke-width:0.2;stroke-linecap:butt;stroke-linejoin:miter;stroke:rgb(100%,0%,0%);stroke-opacity:1;stroke-miterlimit:10;" d="M 199.999713 0.00012675 L 85.082279 277.116892 " transform="matrix(2.834644,0,0,-2.834644,141.732194,992.125359)"/>
<path style="fill:none;stroke-width:0.2;stroke-linecap:butt;stroke-linejoin:miter;stroke:rgb(100%,0%,0%);stroke-opacity:1;stroke-miterlimit:10;" d="M 199.999713 0.00012675 L 78.784641 274.42007 " transform="matrix(2.834644,0,0,-2.834644,141.732194,992.125359)"/>
<path style="fill:none;stroke-width:0.2;stroke-linecap:butt;stroke-linejoin:miter;stroke:rgb(100%,0%,0%);stroke-opacity:1;stroke-miterlimit:10;" d="M 199.999713 0.00012675 L 72.549014 271.581309 " transform="matrix(2.834644,0,0,-2.834644,141.732194,992.125359)"/>
<path style="fill:none;stroke-width:0.2;stroke-linecap:butt;stroke-linejoin:miter;stroke:rgb(100%,0%,0%);stroke-opacity:1;stroke-miterlimit:10;" d="M 199.999713 0.00012675 L 66.380911 268.600611 " transform="matrix(2.834644,0,0,-2.834644,141.732194,992.125359)"/>
<path style="fill:none;stroke-width:0.2;stroke-linecap:butt;stroke-linejoin:miter;stroke:rgb(100%,0%,0%);stroke-opacity:1;stroke-miterlimit:10;" d="M 199.999713 0.00012675 L 60.283088 265.479352 " transform="matrix(2.834644,0,0,-2.834644,141.732194,992.125359)"/>
<path style="fill:none;stroke-width:0.2;stroke-linecap:butt;stroke-linejoin:miter;stroke:rgb(100%,0%,0%);stroke-opacity:1;stroke-miterlimit:10;" d="M 199.999713 0.00012675 L 54.258301 262.22029 " transform="matrix(2.834644,0,0,-2.834644,141.732194,992.125359)"/>
<path style="fill:none;stroke-width:0.2;stroke-linecap:butt;stroke-linejoin:miter;stroke:rgb(100%,0%,0%);stroke-opacity:1;stroke-miterlimit:10;" d="M 199.999713 0.00012675 L 48.307929 258.823423 " transform="matrix(2.834644,0,0,-2.834644,141.732194,992.125359)"/>
<path style="fill:none;stroke-width:0.2;stroke-linecap:butt;stroke-linejoin:miter;stroke:rgb(100%,0%,0%);stroke-opacity:1;stroke-miterlimit:10;" d="M 199.999713 0.00012675 L 42.437482 255.291509 " transform="matrix(2.834644,0,0,-2.834644,141.732194,992.125359)"/>
<path style="fill:none;stroke-width:0.2;stroke-linecap:butt;stroke-linejoin:miter;stroke:rgb(100%,0%,0%);stroke-opacity:1;stroke-miterlimit:10;" d="M 199.999713 0.00012675 L 36.649718 251.627303 " transform="matrix(2.834644,0,0,-2.834644,141.732194,992.125359)"/>
<path style="fill:none;stroke-width:0.2;stroke-linecap:butt;stroke-linejoin:miter;stroke:rgb(100%,0%,0%);stroke-opacity:1;stroke-miterlimit:10;" d="M 199.999713 0.00012675 L 30.946015 247.832184 " transform="matrix(2.834644,0,0,-2.834644,141.732194,992.125359)"/>
<path style="fill:none;stroke-width:0.2;stroke-linecap:butt;stroke-linejoin:miter;stroke:rgb(100%,0%,0%);stroke-opacity:1;stroke-miterlimit:10;" d="M 199.999713 0.00012675 L 25.331883 243.907529 " transform="matrix(2.834644,0,0,-2.834644,141.732194,992.125359)"/>
<path style="fill:none;stroke-width:0.2;stroke-linecap:butt;stroke-linejoin:miter;stroke:rgb(100%,0%,0%);stroke-opacity:1;stroke-miterlimit:10;" d="M 199.999713 0.00012675 L 19.807325 239.856094 " transform="matrix(2.834644,0,0,-2.834644,141.732194,992.125359)"/>
<path style="fill:none;stroke-width:0.2;stroke-linecap:butt;stroke-linejoin:miter;stroke:rgb(100%,0%,0%);stroke-opacity:1;stroke-miterlimit:10;" d="M 199.999713 0.00012675 L 14.377851 235.677879 " transform="matrix(2.834644,0,0,-2.834644,141.732194,992.125359)"/>
<path style="fill:none;stroke-width:0.2;stroke-linecap:butt;stroke-linejoin:miter;stroke:rgb(100%,0%,0%);stroke-opacity:1;stroke-miterlimit:10;" d="M 199.999713 0.00012675 L 9.04484 231.378398 " transform="matrix(2.834644,0,0,-2.834644,141.732194,992.125359)"/>
<path style="fill:none;stroke-width:0.2;stroke-linecap:butt;stroke-linejoin:miter;stroke:rgb(100%,0%,0%);stroke-opacity:1;stroke-miterlimit:10;" d="M 199.999713 0.00012675 L 3.811047 226.957648 " transform="matrix(2.834644,0,0,-2.834644,141.732194,992.125359)"/>
<path style="fill:none;stroke-width:0.2;stroke-linecap:butt;stroke-linejoin:miter;stroke:rgb(100%,0%,0%);stroke-opacity:1;stroke-miterlimit:10;" d="M 199.999713 0.00012675 L -1.32077 222.418388 " transform="matrix(2.834644,0,0,-2.834644,141.732194,992.125359)"/>
<path style="fill:none;stroke-width:0.2;stroke-linecap:butt;stroke-linejoin:miter;stroke:rgb(100%,0%,0%);stroke-opacity:1;stroke-miterlimit:10;" d="M 199.999713 0.00012675 L -6.346479 217.763372 " transform="matrix(2.834644,0,0,-2.834644,141.732194,992.125359)"/>
<path style="fill:none;stroke-width:0.2;stroke-linecap:butt;stroke-linejoin:miter;stroke:rgb(100%,0%,0%);stroke-opacity:1;stroke-miterlimit:10;" d="M 199.999713 0.00012675 L -11.2647 212.995356 " transform="matrix(2.834644,0,0,-2.834644,141.732194,992.125359)"/>
<path style="fill:none;stroke-width:0.2;stroke-linecap:butt;stroke-linejoin:miter;stroke:rgb(100%,0%,0%);stroke-opacity:1;stroke-miterlimit:10;" d="M 199.999713 0.00012675 L -16.074056 208.11572 " transform="matrix(2.834644,0,0,-2.834644,141.732194,992.125359)"/>
<path style="fill:none;stroke-width:0.2;stroke-linecap:butt;stroke-linejoin:miter;stroke:rgb(100%,0%,0%);stroke-opacity:1;stroke-miterlimit:10;" d="M 199.999713 0.00012675 L -20.769035 203.127219 " transform="matrix(2.834644,0,0,-2.834644,141.732194,992.125359)"/>
<path style="fill:none;stroke-width:0.2;stroke-linecap:butt;stroke-linejoin:miter;stroke:rgb(100%,0%,0%);stroke-opacity:1;stroke-miterlimit:10;" d="M 199.999713 0.00012675 L -25.349637 198.033986 " transform="matrix(2.834644,0,0,-2.834644,141.732194,992.125359)"/>
<path style="fill:none;stroke-width:0.2;stroke-linecap:butt;stroke-linejoin:miter;stroke:rgb(100%,0%,0%);stroke-opacity:1;stroke-miterlimit:10;" d="M 199.999713 0.00012675 L -29.813106 192.836023 " transform="matrix(2.834644,0,0,-2.834644,141.732194,992.125359)"/>
<path style="fill:none;stroke-width:1;stroke-linecap:butt;stroke-linejoin:miter;stroke:rgb(0%,0%,0%);stroke-opacity:1;stroke-miterlimit:10;" d="M 240.073089 10.283054 L 239.874651 11.209096 L 239.659677 12.132383 L 239.426788 13.052913 L 239.177363 13.970687 L 238.910024 14.885705 L 238.626148 15.796589 L 238.324357 16.704716 L 238.00603 17.610088 L 237.669788 18.509947 L 237.31701 19.407051 L 236.946318 20.298642 L 236.559089 21.187477 L 236.155323 22.0708 L 235.732265 22.948611 L 235.294049 23.822288 L 234.83654 24.690453 L 234.363873 25.553105 L 233.873291 26.410245 L 233.364794 27.261874 L 232.839762 28.10799 L 232.296814 28.947215 L 231.735952 29.779551 L 231.159932 30.604996 L 230.564619 31.42493 L 229.95277 32.236595 L 229.324384 33.041369 L 228.676705 33.837876 L 228.013869 34.62887 L 227.331739 35.410219 L 226.633074 36.183298 L 225.916493 36.949488 L 225.183376 37.706032 L 224.432345 38.454307 L 223.663399 39.192936 L 222.876539 39.923296 L 222.071764 40.644011 L 221.250453 41.355079 L 220.409849 42.056501 L 219.552709 42.748277 L 218.677654 43.429028 L 217.783307 44.100133 L 216.872423 44.758836 L 215.942247 45.407892 L 214.994156 46.045924 L 214.02815 46.672932 L 213.042852 47.287537 L 212.03964 47.891118 L 211.018513 48.480919 L 209.976715 49.059695 L 208.917003 49.626069 L 207.837999 50.178663 L 206.74108 50.718854 L 205.62349 51.245265 L 204.48523 51.757896 L 203.329055 52.256746 L 202.15221 52.741816 L 200.954694 53.211727 L 199.737885 53.667858 L 198.499028 54.107453 L 197.2395 54.533267 L 195.959302 54.942544 L 194.658433 55.335285 L 193.334138 55.71149 L 191.989172 56.071158 L 190.620779 56.41429 L 189.230337 56.739507 L 187.816469 57.04681 L 186.377796 57.336198 L 184.915697 57.606294 L 183.430171 57.857097 L 181.918462 58.088607 L 180.381949 58.300825 L 178.819252 58.492373 L 177.228995 58.661872 L 175.611177 58.8107 L 173.967177 58.937479 L 172.292859 59.040832 L 170.589603 59.122137 L 168.85603 59.178636 L 167.090762 59.210331 L 165.293799 59.217221 L 163.463763 59.197929 L 161.599276 59.152454 L 159.700338 59.079417 L 157.764193 58.977443 L 155.790841 58.846529 L 153.778904 58.685298 L 151.725626 58.492373 L 149.631007 58.267752 L 147.493668 58.010059 L 145.309476 57.716537 L 143.078431 57.387185 L 140.797776 57.020627 L 138.466134 56.615484 L 136.080749 56.170377 L 133.638864 55.682551 " transform="matrix(2.834644,0,0,-2.834644,141.732194,992.125359)"/>
</g>
</svg>
