<?xml version="1.0" encoding="UTF-8"?>
<svg xmlns="http://www.w3.org/2000/svg" xmlns:xlink="http://www.w3.org/1999/xlink" width="2267.715107pt" height="1133.857553pt" viewBox="0 0 2267.715107 1133.857553" version="1.1">
<g id="surface1">
<path style="fill:none;stroke-width:1;stroke-linecap:butt;stroke-linejoin:miter;stroke:rgb(0%,0%,0%);stroke-opacity:1;stroke-miterlimit:10;" d="M -0.000608695 0.00012675 L 749.999907 0.00012675 " transform="matrix(2.834644,0,0,-2.834644,141.732194,992.125359)"/>
<path style="fill:none;stroke-width:1;stroke-linecap:butt;stroke-linejoin:miter;stroke:rgb(0%,0%,0%);stroke-opacity:1;stroke-miterlimit:10;" d="M -0.000608695 0.00012675 L -0.000608695 350 " transform="matrix(2.834644,0,0,-2.834644,141.732194,992.125359)"/>
<path style="fill:none;stroke-width:0.2;stroke-linecap:butt;stroke-linejoin:miter;stroke:rgb(0%,0%,100%);stroke-opacity:1;stroke-miterlimit:10;" d="M -0.000608695 0.00012675 L 500.000195 0.00012675 " transform="matrix(2.834644,0,0,-2.834644,141.732194,992.125359)"/>
<path style="fill:none;stroke-width:0.2;stroke-linecap:butt;stroke-linejoin:miter;stroke:rgb(0%,0%,100%);stroke-opacity:1;stroke-miterlimit:10;" d="M -0.000608695 0.00012675 L 500.000195 1.639993 " transform="matrix(2.834644,0,0,-2.834644,141.732194,992.125359)"/>
<path style="fill:none;stroke-width:0.2;stroke-linecap:butt;stroke-linejoin:miter;stroke:rgb(0%,0%,100%);stroke-opacity:1;stroke-miterlimit:10;" d="M -0.000608695 0.00012675 L 500.000195 3.281238 " transform="matrix(2.834644,0,0,-2.834644,141.732194,992.125359)"/>
<path style="fill:none;stroke-width:0.2;stroke-linecap:butt;stroke-linejoin:miter;stroke:rgb(0%,0%,100%);stroke-opacity:1;stroke-miterlimit:10;" d="M -0.000608695 0.00012675 L 500.000195 4.921104 " transform="matrix(2.834644,0,0,-2.834644,141.732194,992.125359)"/>
<path style="fill:none;stroke-width:0.2;stroke-linecap:butt;stroke-linejoin:miter;stroke:rgb(0%,0%,100%);stroke-opacity:1;stroke-miterlimit:10;" d="M -0.000608695 0.00012675 L 500.000195 6.562349 " transform="matrix(2.834644,0,0,-2.834644,141.732194,992.125359)"/>
<path style="fill:none;stroke-width:0.2;stroke-linecap:butt;stroke-linejoin:miter;stroke:rgb(0%,0%,100%);stroke-opacity:1;stroke-miterlimit:10;" d="M -0.000608695 0.00012675 L 500.000195 8.202215 " transform="matrix(2.834644,0,0,-2.834644,141.732194,992.125359)"/>
<path style="fill:none;stroke-width:0.2;stroke-linecap:butt;stroke-linejoin:miter;stroke:rgb(0%,0%,100%);stroke-opacity:1;stroke-miterlimit:10;" d="M -0.000608695 0.00012675 L 500.000195 9.842082 " transform="matrix(2.834644,0,0,-2.834644,141.732194,992.125359)"/>
<path style="fill:none;stroke-width:0.2;stroke-linecap:butt;stroke-linejoin:miter;stroke:rgb(0%,0%,100%);stroke-opacity:1;stroke-miterlimit:10;" d="M -0.000608695 0.00012675 L 500.000195 11.483326 " transform="matrix(2.834644,0,0,-2.834644,141.732194,992.125359)"/>
<path style="fill:none;stroke-width:0.2;stroke-linecap:butt;stroke-linejoin:miter;stroke:rgb(0%,0%,100%);stroke-opacity:1;stroke-miterlimit:10;" d="M -0.000608695 0.00012675 L 500.000195 13.123193 " transform="matrix(2.834644,0,0,-2.834644,141.732194,992.125359)"/>
<path style="fill:none;stroke-width:0.2;stroke-linecap:butt;stroke-linejoin:miter;stroke:rgb(0%,0%,100%);stroke-opacity:1;stroke-miterlimit:10;" d="M -0.000608695 0.00012675 L 500.000195 14.764437 " transform="matrix(2.834644,0,0,-2.834644,141.732194,992.125359)"/>
<path style="fill:none;stroke-width:0.2;stroke-linecap:butt;stroke-linejoin:miter;stroke:rgb(0%,0%,100%);stroke-opacity:1;stroke-miterlimit:10;" d="M -0.000608695 0.00012675 L 500.000195 16.404304 " transform="matrix(2.834644,0,0,-2.834644,141.732194,992.125359)"/>
<path style="fill:none;stroke-width:0.2;stroke-linecap:butt;stroke-linejoin:miter;stroke:rgb(0%,0%,100%);stroke-opacity:1;stroke-miterlimit:10;" d="M -0.000608695 0.00012675 L 500.000195 18.04417 " transform="matrix(2.834644,0,0,-2.834644,141.732194,992.125359)"/>
<path style="fill:none;stroke-width:0.2;stroke-linecap:butt;stroke-linejoin:miter;stroke:rgb(0%,0%,100%);stroke-opacity:1;stroke-miterlimit:10;" d="M -0.000608695 0.00012675 L 500.000195 19.685415 " transform="matrix(2.834644,0,0,-2.834644,141.732194,992.125359)"/>
<path style="fill:none;stroke-width:0.2;stroke-linecap:butt;stroke-linejoin:miter;stroke:rgb(0%,0%,100%);stroke-opacity:1;stroke-miterlimit:10;" d="M -0.000608695 0.00012675 L 500.000195 21.325281 " transform="matrix(2.834644,0,0,-2.834644,141.732194,992.125359)"/>
<path style="fill:none;stroke-width:0.2;stroke-linecap:butt;stroke-linejoin:miter;stroke:rgb(0%,0%,100%);stroke-opacity:1;stroke-miterlimit:10;" d="M -0.000608695 0.00012675 L 500.000195 22.966526 " transform="matrix(2.834644,0,0,-2.834644,141.732194,992.125359)"/>
<path style="fill:none;stroke-width:0.2;stroke-linecap:butt;stroke-linejoin:miter;stroke:rgb(0%,0%,100%);stroke-opacity:1;stroke-miterlimit:10;" d="M -0.000608695 0.00012675 L 500.000195 24.606392 " transform="matrix(2.834644,0,0,-2.834644,141.732194,992.125359)"/>
<path style="fill:none;stroke-width:0.2;stroke-linecap:butt;stroke-linejoin:miter;stroke:rgb(0%,0%,100%);stroke-opacity:1;stroke-miterlimit:10;" d="M -0.000608695 0.00012675 L 500.000195 26.246259 " transform="matrix(2.834644,0,0,-2.834644,141.732194,992.125359)"/>
<path style="fill:none;stroke-width:0.2;stroke-linecap:butt;stroke-linejoin:miter;stroke:rgb(0%,0%,100%);stroke-opacity:1;stroke-miterlimit:10;" d="M -0.000608695 0.00012675 L 500.000195 27.887503 " transform="matrix(2.834644,0,0,-2.834644,141.732194,992.125359)"/>
<path style="fill:none;stroke-width:0.2;stroke-linecap:butt;stroke-linejoin:miter;stroke:rgb(0%,0%,100%);stroke-opacity:1;stroke-miterlimit:10;" d="M -0.000608695 0.00012675 L 500.000195 29.52737 " transform="matrix(2.834644,0,0,-2.834644,141.732194,992.125359)"/>
<path style="fill:none;stroke-width:0.2;stroke-linecap:butt;stroke-linejoin:miter;stroke:rgb(0%,0%,100%);stroke-opacity:1;stroke-miterlimit:10;" d="M -0.000608695 0.00012675 L 500.000195 31.168614 " transform="matrix(2.834644,0,0,-2.834644,141.732194,992.125359)"/>
<path style="fill:none;stroke-width:0.2;stroke-linecap:butt;stroke-linejoin:miter;stroke:rgb(0%,0%,100%);stroke-opacity:1;stroke-miterlimit:10;" d="M -0.000608695 0.00012675 L 500.000195 32.808481 " transform="matrix(2.834644,0,0,-2.834644,141.732194,992.125359)"/>
<path style="fill:none;stroke-width:0.2;stroke-linecap:butt;stroke-linejoin:miter;stroke:rgb(0%,0%,100%);stroke-opacity:1;stroke-miterlimit:10;" d="M -0.000608695 0.00012675 L 500.000195 34.448347 " transform="matrix(2.834644,0,0,-2.834644,141.732194,992.125359)"/>
<path style="fill:none;stroke-width:0.2;stroke-linecap:butt;stroke-linejoin:miter;stroke:rgb(0%,0%,100%);stroke-opacity:1;stroke-miterlimit:10;" d="M -0.000608695 0.00012675 L 500.000195 36.089592 " transform="matrix(2.834644,0,0,-2.834644,141.732194,992.125359)"/>
<path style="fill:none;stroke-width:0.2;stroke-linecap:butt;stroke-linejoin:miter;stroke:rgb(0%,0%,100%);stroke-opacity:1;stroke-miterlimit:10;" d="M -0.000608695 0.00012675 L 500.000195 37.729458 " transform="matrix(2.834644,0,0,-2.834644,141.732194,992.125359)"/>
<path style="fill:none;stroke-width:0.2;stroke-linecap:butt;stroke-linejoin:miter;stroke:rgb(0%,0%,100%);stroke-opacity:1;stroke-miterlimit:10;" d="M -0.000608695 0.00012675 L 500.000195 39.370703 " transform="matrix(2.834644,0,0,-2.834644,141.732194,992.125359)"/>
<path style="fill:none;stroke-width:0.2;stroke-linecap:butt;stroke-linejoin:miter;stroke:rgb(0%,0%,100%);stroke-opacity:1;stroke-miterlimit:10;" d="M -0.000608695 0.00012675 L 500.000195 41.010569 " transform="matrix(2.834644,0,0,-2.834644,141.732194,992.125359)"/>
<path style="fill:none;stroke-width:0.2;stroke-linecap:butt;stroke-linejoin:miter;stroke:rgb(0%,0%,100%);stroke-opacity:1;stroke-miterlimit:10;" d="M -0.000608695 0.00012675 L 500.000195 42.650436 " transform="matrix(2.834644,0,0,-2.834644,141.732194,992.125359)"/>
<path style="fill:none;stroke-width:0.2;stroke-linecap:butt;stroke-linejoin:miter;stroke:rgb(0%,0%,100%);stroke-opacity:1;stroke-miterlimit:10;" d="M -0.000608695 0.00012675 L 500.000195 44.29168 " transform="matrix(2.834644,0,0,-2.834644,141.732194,992.125359)"/>
<path style="fill:none;stroke-width:0.2;stroke-linecap:butt;stroke-linejoin:miter;stroke:rgb(0%,0%,100%);stroke-opacity:1;stroke-miterlimit:10;" d="M -0.000608695 0.00012675 L 500.000195 45.931547 " transform="matrix(2.834644,0,0,-2.834644,141.732194,992.125359)"/>
<path style="fill:none;stroke-width:0.2;stroke-linecap:butt;stroke-linejoin:miter;stroke:rgb(0%,0%,100%);stroke-opacity:1;stroke-miterlimit:10;" d="M -0.000608695 0.00012675 L 500.000195 47.572791 " transform="matrix(2.834644,0,0,-2.834644,141.732194,992.125359)"/>
<path style="fill:none;stroke-width:0.2;stroke-linecap:butt;stroke-linejoin:miter;stroke:rgb(0%,0%,100%);stroke-opacity:1;stroke-miterlimit:10;" d="M -0.000608695 0.00012675 L 500.000195 49.212658 " transform="matrix(2.834644,0,0,-2.834644,141.732194,992.125359)"/>
<path style="fill:none;stroke-width:0.2;stroke-linecap:butt;stroke-linejoin:miter;stroke:rgb(0%,0%,100%);stroke-opacity:1;stroke-miterlimit:10;" d="M -0.000608695 0.00012675 L 500.000195 50.852524 " transform="matrix(2.834644,0,0,-2.834644,141.732194,992.125359)"/>
<path style="fill:none;stroke-width:0.2;stroke-linecap:butt;stroke-linejoin:miter;stroke:rgb(0%,0%,100%);stroke-opacity:1;stroke-miterlimit:10;" d="M -0.000608695 0.00012675 L 500.000195 52.493769 " transform="matrix(2.834644,0,0,-2.834644,141.732194,992.125359)"/>
<path style="fill:none;stroke-width:0.2;stroke-linecap:butt;stroke-linejoin:miter;stroke:rgb(0%,0%,100%);stroke-opacity:1;stroke-miterlimit:10;" d="M -0.000608695 0.00012675 L 500.000195 54.133635 " transform="matrix(2.834644,0,0,-2.834644,141.732194,992.125359)"/>
<path style="fill:none;stroke-width:0.2;stroke-linecap:butt;stroke-linejoin:miter;stroke:rgb(0%,0%,100%);stroke-opacity:1;stroke-miterlimit:10;" d="M -0.000608695 0.00012675 L 500.000195 55.77488 " transform="matrix(2.834644,0,0,-2.834644,141.732194,992.125359)"/>
<path style="fill:none;stroke-width:0.2;stroke-linecap:butt;stroke-linejoin:miter;stroke:rgb(0%,0%,100%);stroke-opacity:1;stroke-miterlimit:10;" d="M -0.000608695 0.00012675 L 500.000195 57.414746 " transform="matrix(2.834644,0,0,-2.834644,141.732194,992.125359)"/>
<path style="fill:none;stroke-width:0.2;stroke-linecap:butt;stroke-linejoin:miter;stroke:rgb(0%,0%,100%);stroke-opacity:1;stroke-miterlimit:10;" d="M -0.000608695 0.00012675 L 500.000195 59.054613 " transform="matrix(2.834644,0,0,-2.834644,141.732194,992.125359)"/>
<path style="fill:none;stroke-width:0.2;stroke-linecap:butt;stroke-linejoin:miter;stroke:rgb(0%,0%,100%);stroke-opacity:1;stroke-miterlimit:10;" d="M -0.000608695 0.00012675 L 500.000195 60.695857 " transform="matrix(2.834644,0,0,-2.834644,141.732194,992.125359)"/>
<path style="fill:none;stroke-width:0.2;stroke-linecap:butt;stroke-linejoin:miter;stroke:rgb(0%,0%,100%);stroke-opacity:1;stroke-miterlimit:10;" d="M -0.000608695 0.00012675 L 500.000195 62.335724 " transform="matrix(2.834644,0,0,-2.834644,141.732194,992.125359)"/>
<path style="fill:none;stroke-width:0.2;stroke-linecap:butt;stroke-linejoin:miter;stroke:rgb(0%,0%,100%);stroke-opacity:1;stroke-miterlimit:10;" d="M -0.000608695 0.00012675 L 500.000195 63.976968 " transform="matrix(2.834644,0,0,-2.834644,141.732194,992.125359)"/>
<path style="fill:none;stroke-width:0.2;stroke-linecap:butt;stroke-linejoin:miter;stroke:rgb(0%,0%,100%);stroke-opacity:1;stroke-miterlimit:10;" d="M -0.000608695 0.00012675 L 500.000195 65.616835 " transform="matrix(2.834644,0,0,-2.834644,141.732194,992.125359)"/>
<path style="fill:none;stroke-width:0.2;stroke-linecap:butt;stroke-linejoin:miter;stroke:rgb(0%,0%,100%);stroke-opacity:1;stroke-miterlimit:10;" d="M -0.000608695 0.00012675 L 500.000195 67.256701 " transform="matrix(2.834644,0,0,-2.834644,141.732194,992.125359)"/>
<path style="fill:none;stroke-width:0.2;stroke-linecap:butt;stroke-linejoin:miter;stroke:rgb(0%,0%,100%);stroke-opacity:1;stroke-miterlimit:10;" d="M -0.000608695 0.00012675 L 500.000195 68.897946 " transform="matrix(2.834644,0,0,-2.834644,141.732194,992.125359)"/>
<path style="fill:none;stroke-width:0.2;stroke-linecap:butt;stroke-linejoin:miter;stroke:rgb(0%,0%,100%);stroke-opacity:1;stroke-miterlimit:10;" d="M -0.000608695 0.00012675 L 500.000195 70.537812 " transform="matrix(2.834644,0,0,-2.834644,141.732194,992.125359)"/>
<path style="fill:none;stroke-width:0.2;stroke-linecap:butt;stroke-linejoin:miter;stroke:rgb(0%,0%,100%);stroke-opacity:1;stroke-miterlimit:10;" d="M -0.000608695 0.00012675 L 500.000195 72.179057 " transform="matrix(2.834644,0,0,-2.834644,141.732194,992.125359)"/>
<path style="fill:none;stroke-width:0.2;stroke-linecap:butt;stroke-linejoin:miter;stroke:rgb(0%,0%,100%);stroke-opacity:1;stroke-miterlimit:10;" d="M -0.000608695 0.00012675 L 500.000195 73.818923 " transform="matrix(2.834644,0,0,-2.834644,141.732194,992.125359)"/>
<path style="fill:none;stroke-width:0.2;stroke-linecap:butt;stroke-linejoin:miter;stroke:rgb(0%,0%,100%);stroke-opacity:1;stroke-miterlimit:10;" d="M -0.000608695 0.00012675 L 500.000195 75.45879 " transform="matrix(2.834644,0,0,-2.834644,141.732194,992.125359)"/>
<path style="fill:none;stroke-width:0.2;stroke-linecap:butt;stroke-linejoin:miter;stroke:rgb(0%,0%,100%);stroke-opacity:1;stroke-miterlimit:10;" d="M -0.000608695 0.00012675 L 500.000195 77.100034 " transform="matrix(2.834644,0,0,-2.834644,141.732194,992.125359)"/>
<path style="fill:none;stroke-width:0.2;stroke-linecap:butt;stroke-linejoin:miter;stroke:rgb(0%,0%,100%);stroke-opacity:1;stroke-miterlimit:10;" d="M -0.000608695 0.00012675 L 500.000195 78.739901 " transform="matrix(2.834644,0,0,-2.834644,141.732194,992.125359)"/>
<path style="fill:none;stroke-width:0.2;stroke-linecap:butt;stroke-linejoin:miter;stroke:rgb(0%,0%,100%);stroke-opacity:1;stroke-miterlimit:10;" d="M -0.000608695 0.00012675 L 500.000195 80.381145 " transform="matrix(2.834644,0,0,-2.834644,141.732194,992.125359)"/>
<path style="fill:none;stroke-width:0.2;stroke-linecap:butt;stroke-linejoin:miter;stroke:rgb(0%,0%,100%);stroke-opacity:1;stroke-miterlimit:10;" d="M -0.000608695 0.00012675 L 500.000195 82.021012 " transform="matrix(2.834644,0,0,-2.834644,141.732194,992.125359)"/>
<path style="fill:none;stroke-width:0.2;stroke-linecap:butt;stroke-linejoin:miter;stroke:rgb(0%,0%,100%);stroke-opacity:1;stroke-miterlimit:10;" d="M -0.000608695 0.00012675 L 500.000195 83.660878 " transform="matrix(2.834644,0,0,-2.834644,141.732194,992.125359)"/>
<path style="fill:none;stroke-width:0.2;stroke-linecap:butt;stroke-linejoin:miter;stroke:rgb(0%,0%,100%);stroke-opacity:1;stroke-miterlimit:10;" d="M -0.000608695 0.00012675 L 500.000195 85.302123 " transform="matrix(2.834644,0,0,-2.834644,141.732194,992.125359)"/>
<path style="fill:none;stroke-width:0.2;stroke-linecap:butt;stroke-linejoin:miter;stroke:rgb(0%,0%,100%);stroke-opacity:1;stroke-miterlimit:10;" d="M -0.000608695 0.00012675 L 500.000195 86.941989 " transform="matrix(2.834644,0,0,-2.834644,141.732194,992.125359)"/>
<path style="fill:none;stroke-width:0.2;stroke-linecap:butt;stroke-linejoin:miter;stroke:rgb(0%,0%,100%);stroke-opacity:1;stroke-miterlimit:10;" d="M -0.000608695 0.00012675 L 500.000195 88.583234 " transform="matrix(2.834644,0,0,-2.834644,141.732194,992.125359)"/>
<path style="fill:none;stroke-width:0.2;stroke-linecap:butt;stroke-linejoin:miter;stroke:rgb(0%,0%,100%);stroke-opacity:1;stroke-miterlimit:10;" d="M -0.000608695 0.00012675 L 500.000195 90.2231 " transform="matrix(2.834644,0,0,-2.834644,141.732194,992.125359)"/>
<path style="fill:none;stroke-width:0.2;stroke-linecap:butt;stroke-linejoin:miter;stroke:rgb(0%,0%,100%);stroke-opacity:1;stroke-miterlimit:10;" d="M -0.000608695 0.00012675 L 500.000195 91.862967 " transform="matrix(2.834644,0,0,-2.834644,141.732194,992.125359)"/>
<path style="fill:none;stroke-width:0.2;stroke-linecap:butt;stroke-linejoin:miter;stroke:rgb(0%,0%,100%);stroke-opacity:1;stroke-miterlimit:10;" d="M -0.000608695 0.00012675 L 500.000195 93.504211 " transform="matrix(2.834644,0,0,-2.834644,141.732194,992.125359)"/>
<path style="fill:none;stroke-width:0.2;stroke-linecap:butt;stroke-linejoin:miter;stroke:rgb(0%,0%,100%);stroke-opacity:1;stroke-miterlimit:10;" d="M -0.000608695 0.00012675 L 500.000195 95.144078 " transform="matrix(2.834644,0,0,-2.834644,141.732194,992.125359)"/>
<path style="fill:none;stroke-width:0.2;stroke-linecap:butt;stroke-linejoin:miter;stroke:rgb(0%,0%,100%);stroke-opacity:1;stroke-miterlimit:10;" d="M -0.000608695 0.00012675 L 500.000195 96.785322 " transform="matrix(2.834644,0,0,-2.834644,141.732194,992.125359)"/>
<path style="fill:none;stroke-width:0.2;stroke-linecap:butt;stroke-linejoin:miter;stroke:rgb(0%,0%,100%);stroke-opacity:1;stroke-miterlimit:10;" d="M -0.000608695 0.00012675 L 500.000195 98.425189 " transform="matrix(2.834644,0,0,-2.834644,141.732194,992.125359)"/>
<path style="fill:none;stroke-width:0.2;stroke-linecap:butt;stroke-linejoin:miter;stroke:rgb(0%,0%,100%);stroke-opacity:1;stroke-miterlimit:10;" d="M -0.000608695 0.00012675 L 500.000195 100.065055 " transform="matrix(2.834644,0,0,-2.834644,141.732194,992.125359)"/>
<path style="fill:none;stroke-width:0.2;stroke-linecap:butt;stroke-linejoin:miter;stroke:rgb(0%,0%,100%);stroke-opacity:1;stroke-miterlimit:10;" d="M -0.000608695 0.00012675 L 500.000195 101.7063 " transform="matrix(2.834644,0,0,-2.834644,141.732194,992.125359)"/>
<path style="fill:none;stroke-width:0.2;stroke-linecap:butt;stroke-linejoin:miter;stroke:rgb(0%,0%,100%);stroke-opacity:1;stroke-miterlimit:10;" d="M -0.000608695 0.00012675 L 500.000195 103.346166 " transform="matrix(2.834644,0,0,-2.834644,141.732194,992.125359)"/>
<path style="fill:none;stroke-width:0.2;stroke-linecap:butt;stroke-linejoin:miter;stroke:rgb(0%,0%,100%);stroke-opacity:1;stroke-miterlimit:10;" d="M -0.000608695 0.00012675 L 500.000195 104.987411 " transform="matrix(2.834644,0,0,-2.834644,141.732194,992.125359)"/>
<path style="fill:none;stroke-width:0.2;stroke-linecap:butt;stroke-linejoin:miter;stroke:rgb(0%,0%,100%);stroke-opacity:1;stroke-miterlimit:10;" d="M -0.000608695 0.00012675 L 500.000195 106.627277 " transform="matrix(2.834644,0,0,-2.834644,141.732194,992.125359)"/>
<path style="fill:none;stroke-width:0.2;stroke-linecap:butt;stroke-linejoin:miter;stroke:rgb(0%,0%,100%);stroke-opacity:1;stroke-miterlimit:10;" d="M -0.000608695 0.00012675 L 500.000195 108.267144 " transform="matrix(2.834644,0,0,-2.834644,141.732194,992.125359)"/>
<path style="fill:none;stroke-width:0.2;stroke-linecap:butt;stroke-linejoin:miter;stroke:rgb(0%,0%,100%);stroke-opacity:1;stroke-miterlimit:10;" d="M -0.000608695 0.00012675 L 500.000195 109.908388 " transform="matrix(2.834644,0,0,-2.834644,141.732194,992.125359)"/>
<path style="fill:none;stroke-width:0.2;stroke-linecap:butt;stroke-linejoin:miter;stroke:rgb(0%,0%,100%);stroke-opacity:1;stroke-miterlimit:10;" d="M -0.000608695 0.00012675 L 500.000195 111.548255 " transform="matrix(2.834644,0,0,-2.834644,141.732194,992.125359)"/>
<path style="fill:none;stroke-width:0.2;stroke-linecap:butt;stroke-linejoin:miter;stroke:rgb(0%,0%,100%);stroke-opacity:1;stroke-miterlimit:10;" d="M -0.000608695 0.00012675 L 500.000195 113.189499 " transform="matrix(2.834644,0,0,-2.834644,141.732194,992.125359)"/>
<path style="fill:none;stroke-width:0.2;stroke-linecap:butt;stroke-linejoin:miter;stroke:rgb(0%,0%,100%);stroke-opacity:1;stroke-miterlimit:10;" d="M -0.000608695 0.00012675 L 500.000195 114.829366 " transform="matrix(2.834644,0,0,-2.834644,141.732194,992.125359)"/>
<path style="fill:none;stroke-width:0.2;stroke-linecap:butt;stroke-linejoin:miter;stroke:rgb(0%,0%,100%);stroke-opacity:1;stroke-miterlimit:10;" d="M -0.000608695 0.00012675 L 500.000195 116.469232 " transform="matrix(2.834644,0,0,-2.834644,141.732194,992.125359)"/>
<path style="fill:none;stroke-width:0.2;stroke-linecap:butt;stroke-linejoin:miter;stroke:rgb(0%,0%,100%);stroke-opacity:1;stroke-miterlimit:10;" d="M -0.000608695 0.00012675 L 500.000195 118.110477 " transform="matrix(2.834644,0,0,-2.834644,141.732194,992.125359)"/>
<path style="fill:none;stroke-width:0.2;stroke-linecap:butt;stroke-linejoin:miter;stroke:rgb(0%,0%,100%);stroke-opacity:1;stroke-miterlimit:10;" d="M -0.000608695 0.00012675 L 500.000195 119.750343 " transform="matrix(2.834644,0,0,-2.834644,141.732194,992.125359)"/>
<path style="fill:none;stroke-width:0.2;stroke-linecap:butt;stroke-linejoin:miter;stroke:rgb(0%,0%,100%);stroke-opacity:1;stroke-miterlimit:10;" d="M -0.000608695 0.00012675 L 500.000195 121.391588 " transform="matrix(2.834644,0,0,-2.834644,141.732194,992.125359)"/>
<path style="fill:none;stroke-width:0.2;stroke-linecap:butt;stroke-linejoin:miter;stroke:rgb(0%,0%,100%);stroke-opacity:1;stroke-miterlimit:10;" d="M -0.000608695 0.00012675 L 500.000195 123.031454 " transform="matrix(2.834644,0,0,-2.834644,141.732194,992.125359)"/>
<path style="fill:none;stroke-width:0.2;stroke-linecap:butt;stroke-linejoin:miter;stroke:rgb(0%,0%,100%);stroke-opacity:1;stroke-miterlimit:10;" d="M -0.000608695 0.00012675 L 500.000195 124.671321 " transform="matrix(2.834644,0,0,-2.834644,141.732194,992.125359)"/>
<path style="fill:none;stroke-width:0.2;stroke-linecap:butt;stroke-linejoin:miter;stroke:rgb(0%,0%,100%);stroke-opacity:1;stroke-miterlimit:10;" d="M -0.000608695 0.00012675 L 500.000195 126.312565 " transform="matrix(2.834644,0,0,-2.834644,141.732194,992.125359)"/>
<path style="fill:none;stroke-width:0.2;stroke-linecap:butt;stroke-linejoin:miter;stroke:rgb(0%,0%,100%);stroke-opacity:1;stroke-miterlimit:10;" d="M -0.000608695 0.00012675 L 500.000195 127.952432 " transform="matrix(2.834644,0,0,-2.834644,141.732194,992.125359)"/>
<path style="fill:none;stroke-width:0.2;stroke-linecap:butt;stroke-linejoin:miter;stroke:rgb(0%,0%,100%);stroke-opacity:1;stroke-miterlimit:10;" d="M -0.000608695 0.00012675 L 500.000195 129.593676 " transform="matrix(2.834644,0,0,-2.834644,141.732194,992.125359)"/>
<path style="fill:none;stroke-width:0.2;stroke-linecap:butt;stroke-linejoin:miter;stroke:rgb(0%,0%,100%);stroke-opacity:1;stroke-miterlimit:10;" d="M -0.000608695 0.00012675 L 500.000195 131.233543 " transform="matrix(2.834644,0,0,-2.834644,141.732194,992.125359)"/>
<path style="fill:none;stroke-width:0.2;stroke-linecap:butt;stroke-linejoin:miter;stroke:rgb(0%,0%,100%);stroke-opacity:1;stroke-miterlimit:10;" d="M -0.000608695 0.00012675 L 500.000195 132.873409 " transform="matrix(2.834644,0,0,-2.834644,141.732194,992.125359)"/>
<path style="fill:none;stroke-width:0.2;stroke-linecap:butt;stroke-linejoin:miter;stroke:rgb(0%,0%,100%);stroke-opacity:1;stroke-miterlimit:10;" d="M -0.000608695 0.00012675 L 500.000195 134.514654 " transform="matrix(2.834644,0,0,-2.834644,141.732194,992.125359)"/>
<path style="fill:none;stroke-width:0.2;stroke-linecap:butt;stroke-linejoin:miter;stroke:rgb(0%,0%,100%);stroke-opacity:1;stroke-miterlimit:10;" d="M -0.000608695 0.00012675 L 500.000195 136.15452 " transform="matrix(2.834644,0,0,-2.834644,141.732194,992.125359)"/>
<path style="fill:none;stroke-width:0.2;stroke-linecap:butt;stroke-linejoin:miter;stroke:rgb(0%,0%,100%);stroke-opacity:1;stroke-miterlimit:10;" d="M -0.000608695 0.00012675 L 500.000195 137.795765 " transform="matrix(2.834644,0,0,-2.834644,141.732194,992.125359)"/>
<path style="fill:none;stroke-width:0.2;stroke-linecap:butt;stroke-linejoin:miter;stroke:rgb(0%,0%,100%);stroke-opacity:1;stroke-miterlimit:10;" d="M -0.000608695 0.00012675 L 500.000195 139.435631 " transform="matrix(2.834644,0,0,-2.834644,141.732194,992.125359)"/>
<path style="fill:none;stroke-width:0.2;stroke-linecap:butt;stroke-linejoin:miter;stroke:rgb(0%,0%,100%);stroke-opacity:1;stroke-miterlimit:10;" d="M -0.000608695 0.00012675 L 500.000195 141.075498 " transform="matrix(2.834644,0,0,-2.834644,141.732194,992.125359)"/>
<path style="fill:none;stroke-width:0.2;stroke-linecap:butt;stroke-linejoin:miter;stroke:rgb(0%,0%,100%);stroke-opacity:1;stroke-miterlimit:10;" d="M -0.000608695 0.00012675 L 500.000195 142.716742 " transform="matrix(2.834644,0,0,-2.834644,141.732194,992.125359)"/>
<path style="fill:none;stroke-width:0.2;stroke-linecap:butt;stroke-linejoin:miter;stroke:rgb(0%,0%,100%);stroke-opacity:1;stroke-miterlimit:10;" d="M -0.000608695 0.00012675 L 500.000195 144.356609 " transform="matrix(2.834644,0,0,-2.834644,141.732194,992.125359)"/>
<path style="fill:none;stroke-width:0.2;stroke-linecap:butt;stroke-linejoin:miter;stroke:rgb(0%,0%,100%);stroke-opacity:1;stroke-miterlimit:10;" d="M -0.000608695 0.00012675 L 500.000195 145.997853 " transform="matrix(2.834644,0,0,-2.834644,141.732194,992.125359)"/>
<path style="fill:none;stroke-width:0.2;stroke-linecap:butt;stroke-linejoin:miter;stroke:rgb(0%,0%,100%);stroke-opacity:1;stroke-miterlimit:10;" d="M -0.000608695 0.00012675 L 500.000195 147.63772 " transform="matrix(2.834644,0,0,-2.834644,141.732194,992.125359)"/>
<path style="fill:none;stroke-width:0.2;stroke-linecap:butt;stroke-linejoin:miter;stroke:rgb(0%,0%,100%);stroke-opacity:1;stroke-miterlimit:10;" d="M -0.000608695 0.00012675 L 500.000195 149.277586 " transform="matrix(2.834644,0,0,-2.834644,141.732194,992.125359)"/>
<path style="fill:none;stroke-width:0.2;stroke-linecap:butt;stroke-linejoin:miter;stroke:rgb(0%,0%,100%);stroke-opacity:1;stroke-miterlimit:10;" d="M -0.000608695 0.00012675 L 500.000195 150.918831 " transform="matrix(2.834644,0,0,-2.834644,141.732194,992.125359)"/>
<path style="fill:none;stroke-width:0.2;stroke-linecap:butt;stroke-linejoin:miter;stroke:rgb(0%,0%,100%);stroke-opacity:1;stroke-miterlimit:10;" d="M -0.000608695 0.00012675 L 500.000195 152.558697 " transform="matrix(2.834644,0,0,-2.834644,141.732194,992.125359)"/>
<path style="fill:none;stroke-width:0.2;stroke-linecap:butt;stroke-linejoin:miter;stroke:rgb(0%,0%,100%);stroke-opacity:1;stroke-miterlimit:10;" d="M -0.000608695 0.00012675 L 500.000195 154.199942 " transform="matrix(2.834644,0,0,-2.834644,141.732194,992.125359)"/>
<path style="fill:none;stroke-width:0.2;stroke-linecap:butt;stroke-linejoin:miter;stroke:rgb(0%,0%,100%);stroke-opacity:1;stroke-miterlimit:10;" d="M -0.000608695 0.00012675 L 500.000195 155.839808 " transform="matrix(2.834644,0,0,-2.834644,141.732194,992.125359)"/>
<path style="fill:none;stroke-width:0.2;stroke-linecap:butt;stroke-linejoin:miter;stroke:rgb(0%,0%,100%);stroke-opacity:1;stroke-miterlimit:10;" d="M -0.000608695 0.00012675 L 500.000195 157.479675 " transform="matrix(2.834644,0,0,-2.834644,141.732194,992.125359)"/>
<path style="fill:none;stroke-width:0.2;stroke-linecap:butt;stroke-linejoin:miter;stroke:rgb(0%,0%,100%);stroke-opacity:1;stroke-miterlimit:10;" d="M -0.000608695 0.00012675 L 500.000195 159.120919 " transform="matrix(2.834644,0,0,-2.834644,141.732194,992.125359)"/>
<path style="fill:none;stroke-width:0.2;stroke-linecap:butt;stroke-linejoin:miter;stroke:rgb(0%,0%,100%);stroke-opacity:1;stroke-miterlimit:10;" d="M -0.000608695 0.00012675 L 500.000195 160.760786 " transform="matrix(2.834644,0,0,-2.834644,141.732194,992.125359)"/>
<path style="fill:none;stroke-width:0.2;stroke-linecap:butt;stroke-linejoin:miter;stroke:rgb(0%,0%,100%);stroke-opacity:1;stroke-miterlimit:10;" d="M -0.000608695 0.00012675 L 500.000195 162.40203 " transform="matrix(2.834644,0,0,-2.834644,141.732194,992.125359)"/>
<path style="fill:none;stroke-width:0.2;stroke-linecap:butt;stroke-linejoin:miter;stroke:rgb(0%,0%,100%);stroke-opacity:1;stroke-miterlimit:10;" d="M -0.000608695 0.00012675 L 500.000195 164.041897 " transform="matrix(2.834644,0,0,-2.834644,141.732194,992.125359)"/>
<path style="fill:none;stroke-width:0.2;stroke-linecap:butt;stroke-linejoin:miter;stroke:rgb(0%,0%,100%);stroke-opacity:1;stroke-miterlimit:10;" d="M -0.000608695 0.00012675 L 500.000195 165.681763 " transform="matrix(2.834644,0,0,-2.834644,141.732194,992.125359)"/>
<path style="fill:none;stroke-width:0.2;stroke-linecap:butt;stroke-linejoin:miter;stroke:rgb(0%,0%,100%);stroke-opacity:1;stroke-miterlimit:10;" d="M -0.000608695 0.00012675 L 500.000195 167.323008 " transform="matrix(2.834644,0,0,-2.834644,141.732194,992.125359)"/>
<path style="fill:none;stroke-width:0.2;stroke-linecap:butt;stroke-linejoin:miter;stroke:rgb(0%,0%,100%);stroke-opacity:1;stroke-miterlimit:10;" d="M -0.000608695 0.00012675 L 500.000195 168.962874 " transform="matrix(2.834644,0,0,-2.834644,141.732194,992.125359)"/>
<path style="fill:none;stroke-width:0.2;stroke-linecap:butt;stroke-linejoin:miter;stroke:rgb(0%,0%,100%);stroke-opacity:1;stroke-miterlimit:10;" d="M -0.000608695 0.00012675 L 500.000195 170.604119 " transform="matrix(2.834644,0,0,-2.834644,141.732194,992.125359)"/>
<path style="fill:none;stroke-width:0.2;stroke-linecap:butt;stroke-linejoin:miter;stroke:rgb(0%,0%,100%);stroke-opacity:1;stroke-miterlimit:10;" d="M -0.000608695 0.00012675 L 500.000195 172.243985 " transform="matrix(2.834644,0,0,-2.834644,141.732194,992.125359)"/>
<path style="fill:none;stroke-width:0.2;stroke-linecap:butt;stroke-linejoin:miter;stroke:rgb(0%,0%,100%);stroke-opacity:1;stroke-miterlimit:10;" d="M -0.000608695 0.00012675 L 500.000195 173.883852 " transform="matrix(2.834644,0,0,-2.834644,141.732194,992.125359)"/>
<path style="fill:none;stroke-width:0.2;stroke-linecap:butt;stroke-linejoin:miter;stroke:rgb(0%,0%,100%);stroke-opacity:1;stroke-miterlimit:10;" d="M -0.000608695 0.00012675 L 500.000195 175.525096 " transform="matrix(2.834644,0,0,-2.834644,141.732194,992.125359)"/>
<path style="fill:none;stroke-width:0.2;stroke-linecap:butt;stroke-linejoin:miter;stroke:rgb(0%,0%,100%);stroke-opacity:1;stroke-miterlimit:10;" d="M -0.000608695 0.00012675 L 500.000195 177.164963 " transform="matrix(2.834644,0,0,-2.834644,141.732194,992.125359)"/>
<path style="fill:none;stroke-width:0.2;stroke-linecap:butt;stroke-linejoin:miter;stroke:rgb(0%,0%,100%);stroke-opacity:1;stroke-miterlimit:10;" d="M -0.000608695 0.00012675 L 500.000195 178.806207 " transform="matrix(2.834644,0,0,-2.834644,141.732194,992.125359)"/>
<path style="fill:none;stroke-width:0.2;stroke-linecap:butt;stroke-linejoin:miter;stroke:rgb(0%,0%,100%);stroke-opacity:1;stroke-miterlimit:10;" d="M -0.000608695 0.00012675 L 500.000195 180.446074 " transform="matrix(2.834644,0,0,-2.834644,141.732194,992.125359)"/>
<path style="fill:none;stroke-width:0.2;stroke-linecap:butt;stroke-linejoin:miter;stroke:rgb(0%,0%,100%);stroke-opacity:1;stroke-miterlimit:10;" d="M -0.000608695 0.00012675 L 500.000195 182.08594 " transform="matrix(2.834644,0,0,-2.834644,141.732194,992.125359)"/>
<path style="fill:none;stroke-width:0.2;stroke-linecap:butt;stroke-linejoin:miter;stroke:rgb(0%,0%,100%);stroke-opacity:1;stroke-miterlimit:10;" d="M -0.000608695 0.00012675 L 500.000195 183.727185 " transform="matrix(2.834644,0,0,-2.834644,141.732194,992.125359)"/>
<path style="fill:none;stroke-width:0.2;stroke-linecap:butt;stroke-linejoin:miter;stroke:rgb(0%,0%,100%);stroke-opacity:1;stroke-miterlimit:10;" d="M -0.000608695 0.00012675 L 500.000195 185.367051 " transform="matrix(2.834644,0,0,-2.834644,141.732194,992.125359)"/>
<path style="fill:none;stroke-width:0.2;stroke-linecap:butt;stroke-linejoin:miter;stroke:rgb(0%,0%,100%);stroke-opacity:1;stroke-miterlimit:10;" d="M -0.000608695 0.00012675 L 500.000195 187.008296 " transform="matrix(2.834644,0,0,-2.834644,141.732194,992.125359)"/>
<path style="fill:none;stroke-width:0.2;stroke-linecap:butt;stroke-linejoin:miter;stroke:rgb(0%,0%,100%);stroke-opacity:1;stroke-miterlimit:10;" d="M -0.000608695 0.00012675 L 500.000195 188.648162 " transform="matrix(2.834644,0,0,-2.834644,141.732194,992.125359)"/>
<path style="fill:none;stroke-width:0.2;stroke-linecap:butt;stroke-linejoin:miter;stroke:rgb(0%,0%,100%);stroke-opacity:1;stroke-miterlimit:10;" d="M -0.000608695 0.00012675 L 500.000195 190.288029 " transform="matrix(2.834644,0,0,-2.834644,141.732194,992.125359)"/>
<path style="fill:none;stroke-width:0.2;stroke-linecap:butt;stroke-linejoin:miter;stroke:rgb(0%,0%,100%);stroke-opacity:1;stroke-miterlimit:10;" d="M -0.000608695 0.00012675 L 500.000195 191.929273 " transform="matrix(2.834644,0,0,-2.834644,141.732194,992.125359)"/>
<path style="fill:none;stroke-width:0.2;stroke-linecap:butt;stroke-linejoin:miter;stroke:rgb(0%,0%,100%);stroke-opacity:1;stroke-miterlimit:10;" d="M -0.000608695 0.00012675 L 500.000195 193.56914 " transform="matrix(2.834644,0,0,-2.834644,141.732194,992.125359)"/>
<path style="fill:none;stroke-width:0.2;stroke-linecap:butt;stroke-linejoin:miter;stroke:rgb(0%,0%,100%);stroke-opacity:1;stroke-miterlimit:10;" d="M -0.000608695 0.00012675 L 500.000195 195.210384 " transform="matrix(2.834644,0,0,-2.834644,141.732194,992.125359)"/>
<path style="fill:none;stroke-width:0.2;stroke-linecap:butt;stroke-linejoin:miter;stroke:rgb(0%,0%,100%);stroke-opacity:1;stroke-miterlimit:10;" d="M -0.000608695 0.00012675 L 500.000195 196.850251 " transform="matrix(2.834644,0,0,-2.834644,141.732194,992.125359)"/>
<path style="fill:none;stroke-width:0.2;stroke-linecap:butt;stroke-linejoin:miter;stroke:rgb(0%,0%,100%);stroke-opacity:1;stroke-miterlimit:10;" d="M -0.000608695 0.00012675 L 500.000195 198.491495 " transform="matrix(2.834644,0,0,-2.834644,141.732194,992.125359)"/>
<path style="fill:none;stroke-width:0.2;stroke-linecap:butt;stroke-linejoin:miter;stroke:rgb(0%,0%,100%);stroke-opacity:1;stroke-miterlimit:10;" d="M -0.000608695 0.00012675 L 500.000195 200.131362 " transform="matrix(2.834644,0,0,-2.834644,141.732194,992.125359)"/>
<path style="fill:none;stroke-width:0.2;stroke-linecap:butt;stroke-linejoin:miter;stroke:rgb(0%,0%,100%);stroke-opacity:1;stroke-miterlimit:10;" d="M -0.000608695 0.00012675 L 500.000195 201.771228 " transform="matrix(2.834644,0,0,-2.834644,141.732194,992.125359)"/>
<path style="fill:none;stroke-width:0.2;stroke-linecap:butt;stroke-linejoin:miter;stroke:rgb(0%,0%,100%);stroke-opacity:1;stroke-miterlimit:10;" d="M -0.000608695 0.00012675 L 500.000195 203.412473 " transform="matrix(2.834644,0,0,-2.834644,141.732194,992.125359)"/>
<path style="fill:none;stroke-width:0.2;stroke-linecap:butt;stroke-linejoin:miter;stroke:rgb(0%,0%,100%);stroke-opacity:1;stroke-miterlimit:10;" d="M -0.000608695 0.00012675 L 500.000195 205.052339 " transform="matrix(2.834644,0,0,-2.834644,141.732194,992.125359)"/>
<path style="fill:none;stroke-width:0.2;stroke-linecap:butt;stroke-linejoin:miter;stroke:rgb(0%,0%,100%);stroke-opacity:1;stroke-miterlimit:10;" d="M -0.000608695 0.00012675 L 500.000195 206.693584 " transform="matrix(2.834644,0,0,-2.834644,141.732194,992.125359)"/>
<path style="fill:none;stroke-width:0.2;stroke-linecap:butt;stroke-linejoin:miter;stroke:rgb(0%,0%,100%);stroke-opacity:1;stroke-miterlimit:10;" d="M -0.000608695 0.00012675 L 500.000195 208.33345 " transform="matrix(2.834644,0,0,-2.834644,141.732194,992.125359)"/>
<path style="fill:none;stroke-width:0.2;stroke-linecap:butt;stroke-linejoin:miter;stroke:rgb(100%,0%,0%);stroke-opacity:1;stroke-miterlimit:10;" d="M 199.999713 0.00012675 L 500.000195 0.00012675 " transform="matrix(2.834644,0,0,-2.834644,141.732194,992.125359)"/>
<path style="fill:none;stroke-width:0.2;stroke-linecap:butt;stroke-linejoin:miter;stroke:rgb(100%,0%,0%);stroke-opacity:1;stroke-miterlimit:10;" d="M 199.999713 0.00012675 L 499.945073 5.771354 " transform="matrix(2.834644,0,0,-2.834644,141.732194,992.125359)"/>
<path style="fill:none;stroke-width:0.2;stroke-linecap:butt;stroke-linejoin:miter;stroke:rgb(100%,0%,0%);stroke-opacity:1;stroke-miterlimit:10;" d="M 199.999713 0.00012675 L 499.77833 11.541204 " transform="matrix(2.834644,0,0,-2.834644,141.732194,992.125359)"/>
<path style="fill:none;stroke-width:0.2;stroke-linecap:butt;stroke-linejoin:miter;stroke:rgb(100%,0%,0%);stroke-opacity:1;stroke-miterlimit:10;" d="M 199.999713 0.00012675 L 499.499966 17.306919 " transform="matrix(2.834644,0,0,-2.834644,141.732194,992.125359)"/>
<path style="fill:none;stroke-width:0.2;stroke-linecap:butt;stroke-linejoin:miter;stroke:rgb(100%,0%,0%);stroke-opacity:1;stroke-miterlimit:10;" d="M 199.999713 0.00012675 L 499.111359 23.064367 " transform="matrix(2.834644,0,0,-2.834644,141.732194,992.125359)"/>
<path style="fill:none;stroke-width:0.2;stroke-linecap:butt;stroke-linejoin:miter;stroke:rgb(100%,0%,0%);stroke-opacity:1;stroke-miterlimit:10;" d="M 199.999713 0.00012675 L 498.612509 28.814924 " transform="matrix(2.834644,0,0,-2.834644,141.732194,992.125359)"/>
<path style="fill:none;stroke-width:0.2;stroke-linecap:butt;stroke-linejoin:miter;stroke:rgb(100%,0%,0%);stroke-opacity:1;stroke-miterlimit:10;" d="M 199.999713 0.00012675 L 498.003416 34.554456 " transform="matrix(2.834644,0,0,-2.834644,141.732194,992.125359)"/>
<path style="fill:none;stroke-width:0.2;stroke-linecap:butt;stroke-linejoin:miter;stroke:rgb(100%,0%,0%);stroke-opacity:1;stroke-miterlimit:10;" d="M 199.999713 0.00012675 L 497.282702 40.281587 " transform="matrix(2.834644,0,0,-2.834644,141.732194,992.125359)"/>
<path style="fill:none;stroke-width:0.2;stroke-linecap:butt;stroke-linejoin:miter;stroke:rgb(100%,0%,0%);stroke-opacity:1;stroke-miterlimit:10;" d="M 199.999713 0.00012675 L 496.453122 45.993559 " transform="matrix(2.834644,0,0,-2.834644,141.732194,992.125359)"/>
<path style="fill:none;stroke-width:0.2;stroke-linecap:butt;stroke-linejoin:miter;stroke:rgb(100%,0%,0%);stroke-opacity:1;stroke-miterlimit:10;" d="M 199.999713 0.00012675 L 495.513299 51.688994 " transform="matrix(2.834644,0,0,-2.834644,141.732194,992.125359)"/>
<path style="fill:none;stroke-width:0.2;stroke-linecap:butt;stroke-linejoin:miter;stroke:rgb(100%,0%,0%);stroke-opacity:1;stroke-miterlimit:10;" d="M 199.999713 0.00012675 L 494.464612 57.363759 " transform="matrix(2.834644,0,0,-2.834644,141.732194,992.125359)"/>
<path style="fill:none;stroke-width:0.2;stroke-linecap:butt;stroke-linejoin:miter;stroke:rgb(100%,0%,0%);stroke-opacity:1;stroke-miterlimit:10;" d="M 199.999713 0.00012675 L 493.307059 63.019231 " transform="matrix(2.834644,0,0,-2.834644,141.732194,992.125359)"/>
<path style="fill:none;stroke-width:0.2;stroke-linecap:butt;stroke-linejoin:miter;stroke:rgb(100%,0%,0%);stroke-opacity:1;stroke-miterlimit:10;" d="M 199.999713 0.00012675 L 492.039263 68.649899 " transform="matrix(2.834644,0,0,-2.834644,141.732194,992.125359)"/>
<path style="fill:none;stroke-width:0.2;stroke-linecap:butt;stroke-linejoin:miter;stroke:rgb(100%,0%,0%);stroke-opacity:1;stroke-miterlimit:10;" d="M 199.999713 0.00012675 L 490.665358 74.255762 " transform="matrix(2.834644,0,0,-2.834644,141.732194,992.125359)"/>
<path style="fill:none;stroke-width:0.2;stroke-linecap:butt;stroke-linejoin:miter;stroke:rgb(100%,0%,0%);stroke-opacity:1;stroke-miterlimit:10;" d="M 199.999713 0.00012675 L 489.182588 79.834064 " transform="matrix(2.834644,0,0,-2.834644,141.732194,992.125359)"/>
<path style="fill:none;stroke-width:0.2;stroke-linecap:butt;stroke-linejoin:miter;stroke:rgb(100%,0%,0%);stroke-opacity:1;stroke-miterlimit:10;" d="M 199.999713 0.00012675 L 487.593709 85.382049 " transform="matrix(2.834644,0,0,-2.834644,141.732194,992.125359)"/>
<path style="fill:none;stroke-width:0.2;stroke-linecap:butt;stroke-linejoin:miter;stroke:rgb(100%,0%,0%);stroke-opacity:1;stroke-miterlimit:10;" d="M 199.999713 0.00012675 L 485.897343 90.899717 " transform="matrix(2.834644,0,0,-2.834644,141.732194,992.125359)"/>
<path style="fill:none;stroke-width:0.2;stroke-linecap:butt;stroke-linejoin:miter;stroke:rgb(100%,0%,0%);stroke-opacity:1;stroke-miterlimit:10;" d="M 199.999713 0.00012675 L 484.096246 96.382935 " transform="matrix(2.834644,0,0,-2.834644,141.732194,992.125359)"/>
<path style="fill:none;stroke-width:0.2;stroke-linecap:butt;stroke-linejoin:miter;stroke:rgb(100%,0%,0%);stroke-opacity:1;stroke-miterlimit:10;" d="M 199.999713 0.00012675 L 482.18904 101.830323 " transform="matrix(2.834644,0,0,-2.834644,141.732194,992.125359)"/>
<path style="fill:none;stroke-width:0.2;stroke-linecap:butt;stroke-linejoin:miter;stroke:rgb(100%,0%,0%);stroke-opacity:1;stroke-miterlimit:10;" d="M 199.999713 0.00012675 L 480.177103 107.240505 " transform="matrix(2.834644,0,0,-2.834644,141.732194,992.125359)"/>
<path style="fill:none;stroke-width:0.2;stroke-linecap:butt;stroke-linejoin:miter;stroke:rgb(100%,0%,0%);stroke-opacity:1;stroke-miterlimit:10;" d="M 199.999713 0.00012675 L 478.061813 112.610723 " transform="matrix(2.834644,0,0,-2.834644,141.732194,992.125359)"/>
<path style="fill:none;stroke-width:0.2;stroke-linecap:butt;stroke-linejoin:miter;stroke:rgb(100%,0%,0%);stroke-opacity:1;stroke-miterlimit:10;" d="M 199.999713 0.00012675 L 475.844548 117.9396 " transform="matrix(2.834644,0,0,-2.834644,141.732194,992.125359)"/>
<path style="fill:none;stroke-width:0.2;stroke-linecap:butt;stroke-linejoin:miter;stroke:rgb(100%,0%,0%);stroke-opacity:1;stroke-miterlimit:10;" d="M 199.999713 0.00012675 L 473.52393 123.22438 " transform="matrix(2.834644,0,0,-2.834644,141.732194,992.125359)"/>
<path style="fill:none;stroke-width:0.2;stroke-linecap:butt;stroke-linejoin:miter;stroke:rgb(100%,0%,0%);stroke-opacity:1;stroke-miterlimit:10;" d="M 199.999713 0.00012675 L 471.102715 128.465062 " transform="matrix(2.834644,0,0,-2.834644,141.732194,992.125359)"/>
<path style="fill:none;stroke-width:0.2;stroke-linecap:butt;stroke-linejoin:miter;stroke:rgb(100%,0%,0%);stroke-opacity:1;stroke-miterlimit:10;" d="M 199.999713 0.00012675 L 468.580904 133.656135 " transform="matrix(2.834644,0,0,-2.834644,141.732194,992.125359)"/>
<path style="fill:none;stroke-width:0.2;stroke-linecap:butt;stroke-linejoin:miter;stroke:rgb(100%,0%,0%);stroke-opacity:1;stroke-miterlimit:10;" d="M 199.999713 0.00012675 L 465.959874 138.798977 " transform="matrix(2.834644,0,0,-2.834644,141.732194,992.125359)"/>
<path style="fill:none;stroke-width:0.2;stroke-linecap:butt;stroke-linejoin:miter;stroke:rgb(100%,0%,0%);stroke-opacity:1;stroke-miterlimit:10;" d="M 199.999713 0.00012675 L 463.241003 143.889454 " transform="matrix(2.834644,0,0,-2.834644,141.732194,992.125359)"/>
<path style="fill:none;stroke-width:0.2;stroke-linecap:butt;stroke-linejoin:miter;stroke:rgb(100%,0%,0%);stroke-opacity:1;stroke-miterlimit:10;" d="M 199.999713 0.00012675 L 460.424291 148.927564 " transform="matrix(2.834644,0,0,-2.834644,141.732194,992.125359)"/>
<path style="fill:none;stroke-width:0.2;stroke-linecap:butt;stroke-linejoin:miter;stroke:rgb(100%,0%,0%);stroke-opacity:1;stroke-miterlimit:10;" d="M 199.999713 0.00012675 L 457.511116 153.910554 " transform="matrix(2.834644,0,0,-2.834644,141.732194,992.125359)"/>
<path style="fill:none;stroke-width:0.2;stroke-linecap:butt;stroke-linejoin:miter;stroke:rgb(100%,0%,0%);stroke-opacity:1;stroke-miterlimit:10;" d="M 199.999713 0.00012675 L 454.501479 158.835665 " transform="matrix(2.834644,0,0,-2.834644,141.732194,992.125359)"/>
<path style="fill:none;stroke-width:0.2;stroke-linecap:butt;stroke-linejoin:miter;stroke:rgb(100%,0%,0%);stroke-opacity:1;stroke-miterlimit:10;" d="M 199.999713 0.00012675 L 451.399513 163.702899 " transform="matrix(2.834644,0,0,-2.834644,141.732194,992.125359)"/>
<path style="fill:none;stroke-width:0.2;stroke-linecap:butt;stroke-linejoin:miter;stroke:rgb(100%,0%,0%);stroke-opacity:1;stroke-miterlimit:10;" d="M 199.999713 0.00012675 L 448.202462 168.509499 " transform="matrix(2.834644,0,0,-2.834644,141.732194,992.125359)"/>
<path style="fill:none;stroke-width:0.2;stroke-linecap:butt;stroke-linejoin:miter;stroke:rgb(100%,0%,0%);stroke-opacity:1;stroke-miterlimit:10;" d="M 199.999713 0.00012675 L 444.914461 173.25271 " transform="matrix(2.834644,0,0,-2.834644,141.732194,992.125359)"/>
<path style="fill:none;stroke-width:0.2;stroke-linecap:butt;stroke-linejoin:miter;stroke:rgb(100%,0%,0%);stroke-opacity:1;stroke-miterlimit:10;" d="M 199.999713 0.00012675 L 441.536887 177.932531 " transform="matrix(2.834644,0,0,-2.834644,141.732194,992.125359)"/>
<path style="fill:none;stroke-width:0.2;stroke-linecap:butt;stroke-linejoin:miter;stroke:rgb(100%,0%,0%);stroke-opacity:1;stroke-miterlimit:10;" d="M 199.999713 0.00012675 L 438.068363 182.546205 " transform="matrix(2.834644,0,0,-2.834644,141.732194,992.125359)"/>
<path style="fill:none;stroke-width:0.2;stroke-linecap:butt;stroke-linejoin:miter;stroke:rgb(100%,0%,0%);stroke-opacity:1;stroke-miterlimit:10;" d="M 199.999713 0.00012675 L 434.513022 187.092356 " transform="matrix(2.834644,0,0,-2.834644,141.732194,992.125359)"/>
<path style="fill:none;stroke-width:0.2;stroke-linecap:butt;stroke-linejoin:miter;stroke:rgb(100%,0%,0%);stroke-opacity:1;stroke-miterlimit:10;" d="M 199.999713 0.00012675 L 430.869487 191.569605 " transform="matrix(2.834644,0,0,-2.834644,141.732194,992.125359)"/>
<path style="fill:none;stroke-width:0.2;stroke-linecap:butt;stroke-linejoin:miter;stroke:rgb(100%,0%,0%);stroke-opacity:1;stroke-miterlimit:10;" d="M 199.999713 0.00012675 L 427.141891 195.976574 " transform="matrix(2.834644,0,0,-2.834644,141.732194,992.125359)"/>
<path style="fill:none;stroke-width:0.2;stroke-linecap:butt;stroke-linejoin:miter;stroke:rgb(100%,0%,0%);stroke-opacity:1;stroke-miterlimit:10;" d="M 199.999713 0.00012675 L 423.328857 200.310507 " transform="matrix(2.834644,0,0,-2.834644,141.732194,992.125359)"/>
<path style="fill:none;stroke-width:0.2;stroke-linecap:butt;stroke-linejoin:miter;stroke:rgb(100%,0%,0%);stroke-opacity:1;stroke-miterlimit:10;" d="M 199.999713 0.00012675 L 419.434519 204.570026 " transform="matrix(2.834644,0,0,-2.834644,141.732194,992.125359)"/>
<path style="fill:none;stroke-width:0.2;stroke-linecap:butt;stroke-linejoin:miter;stroke:rgb(100%,0%,0%);stroke-opacity:1;stroke-miterlimit:10;" d="M 199.999713 0.00012675 L 415.457498 208.753752 " transform="matrix(2.834644,0,0,-2.834644,141.732194,992.125359)"/>
<path style="fill:none;stroke-width:0.2;stroke-linecap:butt;stroke-linejoin:miter;stroke:rgb(100%,0%,0%);stroke-opacity:1;stroke-miterlimit:10;" d="M 199.999713 0.00012675 L 411.401929 212.858931 " transform="matrix(2.834644,0,0,-2.834644,141.732194,992.125359)"/>
<path style="fill:none;stroke-width:0.2;stroke-linecap:butt;stroke-linejoin:miter;stroke:rgb(100%,0%,0%);stroke-opacity:1;stroke-miterlimit:10;" d="M 199.999713 0.00012675 L 407.267812 216.886939 " transform="matrix(2.834644,0,0,-2.834644,141.732194,992.125359)"/>
<path style="fill:none;stroke-width:0.2;stroke-linecap:butt;stroke-linejoin:miter;stroke:rgb(100%,0%,0%);stroke-opacity:1;stroke-miterlimit:10;" d="M 199.999713 0.00012675 L 403.056525 220.835021 " transform="matrix(2.834644,0,0,-2.834644,141.732194,992.125359)"/>
<path style="fill:none;stroke-width:0.2;stroke-linecap:butt;stroke-linejoin:miter;stroke:rgb(100%,0%,0%);stroke-opacity:1;stroke-miterlimit:10;" d="M 199.999713 0.00012675 L 398.770823 224.70042 " transform="matrix(2.834644,0,0,-2.834644,141.732194,992.125359)"/>
<path style="fill:none;stroke-width:0.2;stroke-linecap:butt;stroke-linejoin:miter;stroke:rgb(100%,0%,0%);stroke-opacity:1;stroke-miterlimit:10;" d="M 199.999713 0.00012675 L 394.410707 228.483137 " transform="matrix(2.834644,0,0,-2.834644,141.732194,992.125359)"/>
<path style="fill:none;stroke-width:0.2;stroke-linecap:butt;stroke-linejoin:miter;stroke:rgb(100%,0%,0%);stroke-opacity:1;stroke-miterlimit:10;" d="M 199.999713 0.00012675 L 389.978934 232.180416 " transform="matrix(2.834644,0,0,-2.834644,141.732194,992.125359)"/>
<path style="fill:none;stroke-width:0.2;stroke-linecap:butt;stroke-linejoin:miter;stroke:rgb(100%,0%,0%);stroke-opacity:1;stroke-miterlimit:10;" d="M 199.999713 0.00012675 L 385.47688 235.792257 " transform="matrix(2.834644,0,0,-2.834644,141.732194,992.125359)"/>
<path style="fill:none;stroke-width:0.2;stroke-linecap:butt;stroke-linejoin:miter;stroke:rgb(100%,0%,0%);stroke-opacity:1;stroke-miterlimit:10;" d="M 199.999713 0.00012675 L 380.905925 239.317281 " transform="matrix(2.834644,0,0,-2.834644,141.732194,992.125359)"/>
<path style="fill:none;stroke-width:0.2;stroke-linecap:butt;stroke-linejoin:miter;stroke:rgb(100%,0%,0%);stroke-opacity:1;stroke-miterlimit:10;" d="M 199.999713 0.00012675 L 376.268823 242.75411 " transform="matrix(2.834644,0,0,-2.834644,141.732194,992.125359)"/>
<path style="fill:none;stroke-width:0.2;stroke-linecap:butt;stroke-linejoin:miter;stroke:rgb(100%,0%,0%);stroke-opacity:1;stroke-miterlimit:10;" d="M 199.999713 0.00012675 L 371.565576 246.099989 " transform="matrix(2.834644,0,0,-2.834644,141.732194,992.125359)"/>
<path style="fill:none;stroke-width:0.2;stroke-linecap:butt;stroke-linejoin:miter;stroke:rgb(100%,0%,0%);stroke-opacity:1;stroke-miterlimit:10;" d="M 199.999713 0.00012675 L 366.798939 249.354917 " transform="matrix(2.834644,0,0,-2.834644,141.732194,992.125359)"/>
<path style="fill:none;stroke-width:0.2;stroke-linecap:butt;stroke-linejoin:miter;stroke:rgb(100%,0%,0%);stroke-opacity:1;stroke-miterlimit:10;" d="M 199.999713 0.00012675 L 361.971668 252.517517 " transform="matrix(2.834644,0,0,-2.834644,141.732194,992.125359)"/>
<path style="fill:none;stroke-width:0.2;stroke-linecap:butt;stroke-linejoin:miter;stroke:rgb(100%,0%,0%);stroke-opacity:1;stroke-miterlimit:10;" d="M 199.999713 0.00012675 L 357.083763 255.587788 " transform="matrix(2.834644,0,0,-2.834644,141.732194,992.125359)"/>
<path style="fill:none;stroke-width:0.2;stroke-linecap:butt;stroke-linejoin:miter;stroke:rgb(100%,0%,0%);stroke-opacity:1;stroke-miterlimit:10;" d="M 199.999713 0.00012675 L 352.136603 258.561596 " transform="matrix(2.834644,0,0,-2.834644,141.732194,992.125359)"/>
<path style="fill:none;stroke-width:0.2;stroke-linecap:butt;stroke-linejoin:miter;stroke:rgb(100%,0%,0%);stroke-opacity:1;stroke-miterlimit:10;" d="M 199.999713 0.00012675 L 347.134321 261.441698 " transform="matrix(2.834644,0,0,-2.834644,141.732194,992.125359)"/>
<path style="fill:none;stroke-width:0.2;stroke-linecap:butt;stroke-linejoin:miter;stroke:rgb(100%,0%,0%);stroke-opacity:1;stroke-miterlimit:10;" d="M 199.999713 0.00012675 L 342.078296 264.223959 " transform="matrix(2.834644,0,0,-2.834644,141.732194,992.125359)"/>
<path style="fill:none;stroke-width:0.2;stroke-linecap:butt;stroke-linejoin:miter;stroke:rgb(100%,0%,0%);stroke-opacity:1;stroke-miterlimit:10;" d="M 199.999713 0.00012675 L 336.968527 266.908379 " transform="matrix(2.834644,0,0,-2.834644,141.732194,992.125359)"/>
<path style="fill:none;stroke-width:0.2;stroke-linecap:butt;stroke-linejoin:miter;stroke:rgb(100%,0%,0%);stroke-opacity:1;stroke-miterlimit:10;" d="M 199.999713 0.00012675 L 331.807771 269.49358 " transform="matrix(2.834644,0,0,-2.834644,141.732194,992.125359)"/>
<path style="fill:none;stroke-width:0.2;stroke-linecap:butt;stroke-linejoin:miter;stroke:rgb(100%,0%,0%);stroke-opacity:1;stroke-miterlimit:10;" d="M 199.999713 0.00012675 L 326.598783 271.979562 " transform="matrix(2.834644,0,0,-2.834644,141.732194,992.125359)"/>
<path style="fill:none;stroke-width:0.2;stroke-linecap:butt;stroke-linejoin:miter;stroke:rgb(100%,0%,0%);stroke-opacity:1;stroke-miterlimit:10;" d="M 199.999713 0.00012675 L 321.342942 274.364948 " transform="matrix(2.834644,0,0,-2.834644,141.732194,992.125359)"/>
<path style="fill:none;stroke-width:0.2;stroke-linecap:butt;stroke-linejoin:miter;stroke:rgb(100%,0%,0%);stroke-opacity:1;stroke-miterlimit:10;" d="M 199.999713 0.00012675 L 316.041626 276.648359 " transform="matrix(2.834644,0,0,-2.834644,141.732194,992.125359)"/>
<path style="fill:none;stroke-width:0.2;stroke-linecap:butt;stroke-linejoin:miter;stroke:rgb(100%,0%,0%);stroke-opacity:1;stroke-miterlimit:10;" d="M 199.999713 0.00012675 L 310.69759 278.829795 " transform="matrix(2.834644,0,0,-2.834644,141.732194,992.125359)"/>
<path style="fill:none;stroke-width:0.2;stroke-linecap:butt;stroke-linejoin:miter;stroke:rgb(100%,0%,0%);stroke-opacity:1;stroke-miterlimit:10;" d="M 199.999713 0.00012675 L 305.313592 280.907877 " transform="matrix(2.834644,0,0,-2.834644,141.732194,992.125359)"/>
<path style="fill:none;stroke-width:0.2;stroke-linecap:butt;stroke-linejoin:miter;stroke:rgb(100%,0%,0%);stroke-opacity:1;stroke-miterlimit:10;" d="M 199.999713 0.00012675 L 299.88963 282.881229 " transform="matrix(2.834644,0,0,-2.834644,141.732194,992.125359)"/>
<path style="fill:none;stroke-width:0.2;stroke-linecap:butt;stroke-linejoin:miter;stroke:rgb(100%,0%,0%);stroke-opacity:1;stroke-miterlimit:10;" d="M 199.999713 0.00012675 L 294.428461 284.751228 " transform="matrix(2.834644,0,0,-2.834644,141.732194,992.125359)"/>
<path style="fill:none;stroke-width:0.2;stroke-linecap:butt;stroke-linejoin:miter;stroke:rgb(100%,0%,0%);stroke-opacity:1;stroke-miterlimit:10;" d="M 199.999713 0.00012675 L 288.932842 286.515118 " transform="matrix(2.834644,0,0,-2.834644,141.732194,992.125359)"/>
<path style="fill:none;stroke-width:0.2;stroke-linecap:butt;stroke-linejoin:miter;stroke:rgb(100%,0%,0%);stroke-opacity:1;stroke-miterlimit:10;" d="M 199.999713 0.00012675 L 283.404149 288.172899 " transform="matrix(2.834644,0,0,-2.834644,141.732194,992.125359)"/>
<path style="fill:none;stroke-width:0.2;stroke-linecap:butt;stroke-linejoin:miter;stroke:rgb(100%,0%,0%);stroke-opacity:1;stroke-miterlimit:10;" d="M 199.999713 0.00012675 L 277.845139 289.724571 " transform="matrix(2.834644,0,0,-2.834644,141.732194,992.125359)"/>
<path style="fill:none;stroke-width:0.2;stroke-linecap:butt;stroke-linejoin:miter;stroke:rgb(100%,0%,0%);stroke-opacity:1;stroke-miterlimit:10;" d="M 199.999713 0.00012675 L 272.255813 291.168756 " transform="matrix(2.834644,0,0,-2.834644,141.732194,992.125359)"/>
<path style="fill:none;stroke-width:0.2;stroke-linecap:butt;stroke-linejoin:miter;stroke:rgb(100%,0%,0%);stroke-opacity:1;stroke-miterlimit:10;" d="M 199.999713 0.00012675 L 266.641682 292.504076 " transform="matrix(2.834644,0,0,-2.834644,141.732194,992.125359)"/>
<path style="fill:none;stroke-width:0.2;stroke-linecap:butt;stroke-linejoin:miter;stroke:rgb(100%,0%,0%);stroke-opacity:1;stroke-miterlimit:10;" d="M 199.999713 0.00012675 L 261.001368 293.731909 " transform="matrix(2.834644,0,0,-2.834644,141.732194,992.125359)"/>
<path style="fill:none;stroke-width:0.2;stroke-linecap:butt;stroke-linejoin:miter;stroke:rgb(100%,0%,0%);stroke-opacity:1;stroke-miterlimit:10;" d="M 199.999713 0.00012675 L 255.339005 294.852255 " transform="matrix(2.834644,0,0,-2.834644,141.732194,992.125359)"/>
<path style="fill:none;stroke-width:0.2;stroke-linecap:butt;stroke-linejoin:miter;stroke:rgb(100%,0%,0%);stroke-opacity:1;stroke-miterlimit:10;" d="M 199.999713 0.00012675 L 249.655972 295.862357 " transform="matrix(2.834644,0,0,-2.834644,141.732194,992.125359)"/>
<path style="fill:none;stroke-width:0.2;stroke-linecap:butt;stroke-linejoin:miter;stroke:rgb(100%,0%,0%);stroke-opacity:1;stroke-miterlimit:10;" d="M 199.999713 0.00012675 L 243.955025 296.762217 " transform="matrix(2.834644,0,0,-2.834644,141.732194,992.125359)"/>
<path style="fill:none;stroke-width:0.2;stroke-linecap:butt;stroke-linejoin:miter;stroke:rgb(100%,0%,0%);stroke-opacity:1;stroke-miterlimit:10;" d="M 199.999713 0.00012675 L 238.237541 297.553211 " transform="matrix(2.834644,0,0,-2.834644,141.732194,992.125359)"/>
<path style="fill:none;stroke-width:0.2;stroke-linecap:butt;stroke-linejoin:miter;stroke:rgb(100%,0%,0%);stroke-opacity:1;stroke-miterlimit:10;" d="M 199.999713 0.00012675 L 232.506276 298.233963 " transform="matrix(2.834644,0,0,-2.834644,141.732194,992.125359)"/>
<path style="fill:none;stroke-width:0.2;stroke-linecap:butt;stroke-linejoin:miter;stroke:rgb(100%,0%,0%);stroke-opacity:1;stroke-miterlimit:10;" d="M 199.999713 0.00012675 L 226.762609 298.804471 " transform="matrix(2.834644,0,0,-2.834644,141.732194,992.125359)"/>
<path style="fill:none;stroke-width:0.2;stroke-linecap:butt;stroke-linejoin:miter;stroke:rgb(100%,0%,0%);stroke-opacity:1;stroke-miterlimit:10;" d="M 199.999713 0.00012675 L 221.009296 299.263358 " transform="matrix(2.834644,0,0,-2.834644,141.732194,992.125359)"/>
<path style="fill:none;stroke-width:0.2;stroke-linecap:butt;stroke-linejoin:miter;stroke:rgb(100%,0%,0%);stroke-opacity:1;stroke-miterlimit:10;" d="M 199.999713 0.00012675 L 215.247715 299.612002 " transform="matrix(2.834644,0,0,-2.834644,141.732194,992.125359)"/>
<path style="fill:none;stroke-width:0.2;stroke-linecap:butt;stroke-linejoin:miter;stroke:rgb(100%,0%,0%);stroke-opacity:1;stroke-miterlimit:10;" d="M 199.999713 0.00012675 L 209.480621 299.850402 " transform="matrix(2.834644,0,0,-2.834644,141.732194,992.125359)"/>
<path style="fill:none;stroke-width:0.2;stroke-linecap:butt;stroke-linejoin:miter;stroke:rgb(100%,0%,0%);stroke-opacity:1;stroke-miterlimit:10;" d="M 199.999713 0.00012675 L 203.710772 299.977182 " transform="matrix(2.834644,0,0,-2.834644,141.732194,992.125359)"/>
<path style="fill:none;stroke-width:0.2;stroke-linecap:butt;stroke-linejoin:miter;stroke:rgb(100%,0%,0%);stroke-opacity:1;stroke-miterlimit:10;" d="M 199.999713 0.00012675 L 197.938166 299.99234 " transform="matrix(2.834644,0,0,-2.834644,141.732194,992.125359)"/>
<path style="fill:none;stroke-width:0.2;stroke-linecap:butt;stroke-linejoin:miter;stroke:rgb(100%,0%,0%);stroke-opacity:1;stroke-miterlimit:10;" d="M 199.999713 0.00012675 L 192.166939 299.897256 " transform="matrix(2.834644,0,0,-2.834644,141.732194,992.125359)"/>
<path style="fill:none;stroke-width:0.2;stroke-linecap:butt;stroke-linejoin:miter;stroke:rgb(100%,0%,0%);stroke-opacity:1;stroke-miterlimit:10;" d="M 199.999713 0.00012675 L 186.399845 299.691928 " transform="matrix(2.834644,0,0,-2.834644,141.732194,992.125359)"/>
<path style="fill:none;stroke-width:0.2;stroke-linecap:butt;stroke-linejoin:miter;stroke:rgb(100%,0%,0%);stroke-opacity:1;stroke-miterlimit:10;" d="M 199.999713 0.00012675 L 180.635508 299.374979 " transform="matrix(2.834644,0,0,-2.834644,141.732194,992.125359)"/>
<path style="fill:none;stroke-width:0.2;stroke-linecap:butt;stroke-linejoin:miter;stroke:rgb(100%,0%,0%);stroke-opacity:1;stroke-miterlimit:10;" d="M 199.999713 0.00012675 L 174.880817 298.946409 " transform="matrix(2.834644,0,0,-2.834644,141.732194,992.125359)"/>
<path style="fill:none;stroke-width:0.2;stroke-linecap:butt;stroke-linejoin:miter;stroke:rgb(100%,0%,0%);stroke-opacity:1;stroke-miterlimit:10;" d="M 199.999713 0.00012675 L 169.133016 298.407596 " transform="matrix(2.834644,0,0,-2.834644,141.732194,992.125359)"/>
<path style="fill:none;stroke-width:0.2;stroke-linecap:butt;stroke-linejoin:miter;stroke:rgb(100%,0%,0%);stroke-opacity:1;stroke-miterlimit:10;" d="M 199.999713 0.00012675 L 163.397617 297.758539 " transform="matrix(2.834644,0,0,-2.834644,141.732194,992.125359)"/>
<path style="fill:none;stroke-width:0.2;stroke-linecap:butt;stroke-linejoin:miter;stroke:rgb(100%,0%,0%);stroke-opacity:1;stroke-miterlimit:10;" d="M 199.999713 0.00012675 L 157.675999 296.99924 " transform="matrix(2.834644,0,0,-2.834644,141.732194,992.125359)"/>
<path style="fill:none;stroke-width:0.2;stroke-linecap:butt;stroke-linejoin:miter;stroke:rgb(100%,0%,0%);stroke-opacity:1;stroke-miterlimit:10;" d="M 199.999713 0.00012675 L 151.970917 296.129697 " transform="matrix(2.834644,0,0,-2.834644,141.732194,992.125359)"/>
<path style="fill:none;stroke-width:0.2;stroke-linecap:butt;stroke-linejoin:miter;stroke:rgb(100%,0%,0%);stroke-opacity:1;stroke-miterlimit:10;" d="M 199.999713 0.00012675 L 146.282372 295.151289 " transform="matrix(2.834644,0,0,-2.834644,141.732194,992.125359)"/>
<path style="fill:none;stroke-width:0.2;stroke-linecap:butt;stroke-linejoin:miter;stroke:rgb(100%,0%,0%);stroke-opacity:1;stroke-miterlimit:10;" d="M 199.999713 0.00012675 L 140.614497 294.064016 " transform="matrix(2.834644,0,0,-2.834644,141.732194,992.125359)"/>
<path style="fill:none;stroke-width:0.2;stroke-linecap:butt;stroke-linejoin:miter;stroke:rgb(100%,0%,0%);stroke-opacity:1;stroke-miterlimit:10;" d="M 199.999713 0.00012675 L 134.967293 292.8665 " transform="matrix(2.834644,0,0,-2.834644,141.732194,992.125359)"/>
<path style="fill:none;stroke-width:0.2;stroke-linecap:butt;stroke-linejoin:miter;stroke:rgb(100%,0%,0%);stroke-opacity:1;stroke-miterlimit:10;" d="M 199.999713 0.00012675 L 129.344894 291.561497 " transform="matrix(2.834644,0,0,-2.834644,141.732194,992.125359)"/>
<path style="fill:none;stroke-width:0.2;stroke-linecap:butt;stroke-linejoin:miter;stroke:rgb(100%,0%,0%);stroke-opacity:1;stroke-miterlimit:10;" d="M 199.999713 0.00012675 L 123.748677 290.147629 " transform="matrix(2.834644,0,0,-2.834644,141.732194,992.125359)"/>
<path style="fill:none;stroke-width:0.2;stroke-linecap:butt;stroke-linejoin:miter;stroke:rgb(100%,0%,0%);stroke-opacity:1;stroke-miterlimit:10;" d="M 199.999713 0.00012675 L 118.181399 288.627652 " transform="matrix(2.834644,0,0,-2.834644,141.732194,992.125359)"/>
<path style="fill:none;stroke-width:0.2;stroke-linecap:butt;stroke-linejoin:miter;stroke:rgb(100%,0%,0%);stroke-opacity:1;stroke-miterlimit:10;" d="M 199.999713 0.00012675 L 112.64306 287.000188 " transform="matrix(2.834644,0,0,-2.834644,141.732194,992.125359)"/>
<path style="fill:none;stroke-width:0.2;stroke-linecap:butt;stroke-linejoin:miter;stroke:rgb(100%,0%,0%);stroke-opacity:1;stroke-miterlimit:10;" d="M 199.999713 0.00012675 L 107.137794 285.266615 " transform="matrix(2.834644,0,0,-2.834644,141.732194,992.125359)"/>
<path style="fill:none;stroke-width:0.2;stroke-linecap:butt;stroke-linejoin:miter;stroke:rgb(100%,0%,0%);stroke-opacity:1;stroke-miterlimit:10;" d="M 199.999713 0.00012675 L 101.666979 283.426933 " transform="matrix(2.834644,0,0,-2.834644,141.732194,992.125359)"/>
<path style="fill:none;stroke-width:0.2;stroke-linecap:butt;stroke-linejoin:miter;stroke:rgb(100%,0%,0%);stroke-opacity:1;stroke-miterlimit:10;" d="M 199.999713 0.00012675 L 96.231993 281.48252 " transform="matrix(2.834644,0,0,-2.834644,141.732194,992.125359)"/>
<path style="fill:none;stroke-width:0.2;stroke-linecap:butt;stroke-linejoin:miter;stroke:rgb(100%,0%,0%);stroke-opacity:1;stroke-miterlimit:10;" d="M 199.999713 0.00012675 L 90.83697 279.433376 " transform="matrix(2.834644,0,0,-2.834644,141.732194,992.125359)"/>
<path style="fill:none;stroke-width:0.2;stroke-linecap:butt;stroke-linejoin:miter;stroke:rgb(100%,0%,0%);stroke-opacity:1;stroke-miterlimit:10;" d="M 199.999713 0.00012675 L 85.480532 277.282257 " transform="matrix(2.834644,0,0,-2.834644,141.732194,992.125359)"/>
<path style="fill:none;stroke-width:0.2;stroke-linecap:butt;stroke-linejoin:miter;stroke:rgb(100%,0%,0%);stroke-opacity:1;stroke-miterlimit:10;" d="M 199.999713 0.00012675 L 80.166814 275.027785 " transform="matrix(2.834644,0,0,-2.834644,141.732194,992.125359)"/>
<path style="fill:none;stroke-width:0.2;stroke-linecap:butt;stroke-linejoin:miter;stroke:rgb(100%,0%,0%);stroke-opacity:1;stroke-miterlimit:10;" d="M 199.999713 0.00012675 L 74.89857 272.671338 " transform="matrix(2.834644,0,0,-2.834644,141.732194,992.125359)"/>
<path style="fill:none;stroke-width:0.2;stroke-linecap:butt;stroke-linejoin:miter;stroke:rgb(100%,0%,0%);stroke-opacity:1;stroke-miterlimit:10;" d="M 199.999713 0.00012675 L 69.675802 270.214294 " transform="matrix(2.834644,0,0,-2.834644,141.732194,992.125359)"/>
<path style="fill:none;stroke-width:0.2;stroke-linecap:butt;stroke-linejoin:miter;stroke:rgb(100%,0%,0%);stroke-opacity:1;stroke-miterlimit:10;" d="M 199.999713 0.00012675 L 64.501266 267.656654 " transform="matrix(2.834644,0,0,-2.834644,141.732194,992.125359)"/>
<path style="fill:none;stroke-width:0.2;stroke-linecap:butt;stroke-linejoin:miter;stroke:rgb(100%,0%,0%);stroke-opacity:1;stroke-miterlimit:10;" d="M 199.999713 0.00012675 L 59.376338 264.999795 " transform="matrix(2.834644,0,0,-2.834644,141.732194,992.125359)"/>
<path style="fill:none;stroke-width:0.2;stroke-linecap:butt;stroke-linejoin:miter;stroke:rgb(100%,0%,0%);stroke-opacity:1;stroke-miterlimit:10;" d="M 199.999713 0.00012675 L 54.305155 262.246472 " transform="matrix(2.834644,0,0,-2.834644,141.732194,992.125359)"/>
<path style="fill:none;stroke-width:0.2;stroke-linecap:butt;stroke-linejoin:miter;stroke:rgb(100%,0%,0%);stroke-opacity:1;stroke-miterlimit:10;" d="M 199.999713 0.00012675 L 49.286336 259.393932 " transform="matrix(2.834644,0,0,-2.834644,141.732194,992.125359)"/>
<path style="fill:none;stroke-width:0.2;stroke-linecap:butt;stroke-linejoin:miter;stroke:rgb(100%,0%,0%);stroke-opacity:1;stroke-miterlimit:10;" d="M 199.999713 0.00012675 L 44.324018 256.446306 " transform="matrix(2.834644,0,0,-2.834644,141.732194,992.125359)"/>
<path style="fill:none;stroke-width:0.2;stroke-linecap:butt;stroke-linejoin:miter;stroke:rgb(100%,0%,0%);stroke-opacity:1;stroke-miterlimit:10;" d="M 199.999713 0.00012675 L 39.419577 253.404974 " transform="matrix(2.834644,0,0,-2.834644,141.732194,992.125359)"/>
<path style="fill:none;stroke-width:0.2;stroke-linecap:butt;stroke-linejoin:miter;stroke:rgb(100%,0%,0%);stroke-opacity:1;stroke-miterlimit:10;" d="M 199.999713 0.00012675 L 34.573013 250.268557 " transform="matrix(2.834644,0,0,-2.834644,141.732194,992.125359)"/>
<path style="fill:none;stroke-width:0.2;stroke-linecap:butt;stroke-linejoin:miter;stroke:rgb(100%,0%,0%);stroke-opacity:1;stroke-miterlimit:10;" d="M 199.999713 0.00012675 L 29.78984 247.039811 " transform="matrix(2.834644,0,0,-2.834644,141.732194,992.125359)"/>
<path style="fill:none;stroke-width:0.2;stroke-linecap:butt;stroke-linejoin:miter;stroke:rgb(100%,0%,0%);stroke-opacity:1;stroke-miterlimit:10;" d="M 199.999713 0.00012675 L 25.068678 243.718737 " transform="matrix(2.834644,0,0,-2.834644,141.732194,992.125359)"/>
<path style="fill:none;stroke-width:0.2;stroke-linecap:butt;stroke-linejoin:miter;stroke:rgb(100%,0%,0%);stroke-opacity:1;stroke-miterlimit:10;" d="M 199.999713 0.00012675 L 20.412284 240.308091 " transform="matrix(2.834644,0,0,-2.834644,141.732194,992.125359)"/>
<path style="fill:none;stroke-width:0.2;stroke-linecap:butt;stroke-linejoin:miter;stroke:rgb(100%,0%,0%);stroke-opacity:1;stroke-miterlimit:10;" d="M 199.999713 0.00012675 L 15.822036 236.809249 " transform="matrix(2.834644,0,0,-2.834644,141.732194,992.125359)"/>
<path style="fill:none;stroke-width:0.2;stroke-linecap:butt;stroke-linejoin:miter;stroke:rgb(100%,0%,0%);stroke-opacity:1;stroke-miterlimit:10;" d="M 199.999713 0.00012675 L 11.30069 233.222214 " transform="matrix(2.834644,0,0,-2.834644,141.732194,992.125359)"/>
<path style="fill:none;stroke-width:0.2;stroke-linecap:butt;stroke-linejoin:miter;stroke:rgb(100%,0%,0%);stroke-opacity:1;stroke-miterlimit:10;" d="M 199.999713 0.00012675 L 6.848245 229.548362 " transform="matrix(2.834644,0,0,-2.834644,141.732194,992.125359)"/>
<path style="fill:none;stroke-width:0.2;stroke-linecap:butt;stroke-linejoin:miter;stroke:rgb(100%,0%,0%);stroke-opacity:1;stroke-miterlimit:10;" d="M 199.999713 0.00012675 L 2.467459 225.789071 " transform="matrix(2.834644,0,0,-2.834644,141.732194,992.125359)"/>
<path style="fill:none;stroke-width:0.2;stroke-linecap:butt;stroke-linejoin:miter;stroke:rgb(100%,0%,0%);stroke-opacity:1;stroke-miterlimit:10;" d="M 199.999713 0.00012675 L -1.840291 221.947098 " transform="matrix(2.834644,0,0,-2.834644,141.732194,992.125359)"/>
<path style="fill:none;stroke-width:0.2;stroke-linecap:butt;stroke-linejoin:miter;stroke:rgb(100%,0%,0%);stroke-opacity:1;stroke-miterlimit:10;" d="M 199.999713 0.00012675 L -6.072249 218.023821 " transform="matrix(2.834644,0,0,-2.834644,141.732194,992.125359)"/>
<path style="fill:none;stroke-width:0.2;stroke-linecap:butt;stroke-linejoin:miter;stroke:rgb(100%,0%,0%);stroke-opacity:1;stroke-miterlimit:10;" d="M 199.999713 0.00012675 L -10.228415 214.017861 " transform="matrix(2.834644,0,0,-2.834644,141.732194,992.125359)"/>
<path style="fill:none;stroke-width:0.2;stroke-linecap:butt;stroke-linejoin:miter;stroke:rgb(100%,0%,0%);stroke-opacity:1;stroke-miterlimit:10;" d="M 199.999713 0.00012675 L -14.30741 209.934732 " transform="matrix(2.834644,0,0,-2.834644,141.732194,992.125359)"/>
<path style="fill:none;stroke-width:0.2;stroke-linecap:butt;stroke-linejoin:miter;stroke:rgb(100%,0%,0%);stroke-opacity:1;stroke-miterlimit:10;" d="M 199.999713 0.00012675 L -18.30648 205.773054 " transform="matrix(2.834644,0,0,-2.834644,141.732194,992.125359)"/>
<path style="fill:none;stroke-width:0.2;stroke-linecap:butt;stroke-linejoin:miter;stroke:rgb(100%,0%,0%);stroke-opacity:1;stroke-miterlimit:10;" d="M 199.999713 0.00012675 L -22.224245 201.534206 " transform="matrix(2.834644,0,0,-2.834644,141.732194,992.125359)"/>
<path style="fill:none;stroke-width:0.2;stroke-linecap:butt;stroke-linejoin:miter;stroke:rgb(100%,0%,0%);stroke-opacity:1;stroke-miterlimit:10;" d="M 199.999713 0.00012675 L -26.060705 197.222321 " transform="matrix(2.834644,0,0,-2.834644,141.732194,992.125359)"/>
<path style="fill:none;stroke-width:0.2;stroke-linecap:butt;stroke-linejoin:miter;stroke:rgb(100%,0%,0%);stroke-opacity:1;stroke-miterlimit:10;" d="M 199.999713 0.00012675 L -29.813106 192.836023 " transform="matrix(2.834644,0,0,-2.834644,141.732194,992.125359)"/>
<path style="fill:none;stroke-width:1;stroke-linecap:butt;stroke-linejoin:miter;stroke:rgb(0%,0%,0%);stroke-opacity:1;stroke-miterlimit:10;" d="M 240.082735 10.240335 L 239.91737 11.020305 L 239.739603 11.798897 L 239.550812 12.574733 L 239.34824 13.349191 L 239.134644 14.122271 L 238.908646 14.892595 L 238.670245 15.660163 L 238.419442 16.426352 L 238.156236 17.189786 L 237.880628 17.950464 L 237.593996 18.708385 L 237.294962 19.46355 L 236.982147 20.214582 L 236.658308 20.964235 L 236.322066 21.709754 L 235.973422 22.451139 L 235.613754 23.189768 L 235.240306 23.925641 L 234.855833 24.65738 L 234.457579 25.383606 L 234.048302 26.108455 L 233.626622 26.827791 L 233.19254 27.542993 L 232.746055 28.252684 L 232.287168 28.959618 L 231.817257 29.66104 L 231.333565 30.358327 L 230.838849 31.051481 L 230.330352 31.739122 L 229.810832 32.421252 L 229.278909 33.097869 L 228.734583 33.770352 L 228.176477 34.435945 L 227.607347 35.097404 L 227.025815 35.751972 L 226.43188 36.401029 L 225.825543 37.044573 L 225.206803 37.682605 L 224.575661 38.313747 L 223.930739 38.937998 L 223.274792 39.556738 L 222.606443 40.168587 L 221.924314 40.773547 L 221.23116 41.371615 L 220.524226 41.962794 L 219.80489 42.547083 L 219.073151 43.124481 L 218.327632 43.693611 L 217.569711 44.255851 L 216.799387 44.811201 L 216.016661 45.358282 L 215.220154 45.897096 L 214.411245 46.427641 L 213.588556 46.949918 L 212.753464 47.463926 L 211.904592 47.971045 L 211.04194 48.467139 L 210.166885 48.956342 L 209.27805 49.4359 L 208.376812 49.905811 L 207.460416 50.367454 L 206.53024 50.819451 L 205.587661 51.261802 L 204.629924 51.694506 L 203.658406 52.117564 L 202.673108 52.529598 L 201.67403 52.933363 L 200.659793 53.324726 L 199.630398 53.706443 L 198.587223 54.077136 L 197.528889 54.436804 L 196.456774 54.785448 L 195.368123 55.123067 L 194.264314 55.449663 L 193.145346 55.763855 L 192.009842 56.065646 L 190.859179 56.356412 L 189.69198 56.633398 L 188.509623 56.89936 L 187.309351 57.151541 L 186.092542 57.39132 L 184.857819 57.61594 L 183.60656 57.829536 L 182.337386 58.027974 L 181.050297 58.211253 L 179.745294 58.38213 L 178.420999 58.53647 L 177.077411 58.67703 L 175.71453 58.802432 L 174.332357 58.911297 L 172.928135 59.005003 L 171.504621 59.080795 L 170.060436 59.141429 L 168.592824 59.184148 L 167.104542 59.210331 L 165.592833 59.218599 L 164.057698 59.207575 L 162.499136 59.177258 L 160.915769 59.129027 L 159.307597 59.060125 L 157.671865 58.97193 L 156.011328 58.861687 L 154.321852 58.730774 L 152.604815 58.577811 L 150.857462 58.4028 L 149.079791 58.204363 L 147.271804 57.98112 L 145.430744 57.733073 L 143.556611 57.460222 L 141.648027 57.161187 L 139.703613 56.834592 L 137.721993 56.480436 L 135.70041 56.097341 L 133.638864 55.682551 " transform="matrix(2.834644,0,0,-2.834644,141.732194,992.125359)"/>
</g>
</svg>
